<svg id="svg_backpack" xmlns="http://www.w3.org/2000/svg"  viewBox="0 0 400 300" width="240" height="180"
     class="styles_illustrationTablet__1DWOa">
    <g id="_391_hiking_outline" data-name="#391_hiking_outline">
        <rect x="136.74" y="61.03" width="126.51" height="31.53" rx="8.39" fill="#093f68"></rect>
        <path d="M254.87,93.56H145.13a9.4,9.4,0,0,1-9.39-9.39V69.42A9.4,9.4,0,0,1,145.13,60H254.87a9.4,9.4,0,0,1,9.39,9.39V84.17A9.4,9.4,0,0,1,254.87,93.56ZM145.13,62a7.4,7.4,0,0,0-7.39,7.39V84.17a7.4,7.4,0,0,0,7.39,7.39H254.87a7.4,7.4,0,0,0,7.39-7.39V69.42A7.4,7.4,0,0,0,254.87,62Z"
              fill="#093f68"></path>
        <rect x="161.41" y="61.03" width="10.61" height="31.53" fill="#68e1fd"></rect>
        <path d="M172,93.56H161.41a1,1,0,0,1-1-1V61a1,1,0,0,1,1-1H172a1,1,0,0,1,1,1V92.56A1,1,0,0,1,172,93.56Zm-9.61-2H171V62h-8.61Z"
              fill="#093f68"></path>
        <rect x="227.98" y="61.03" width="10.61" height="31.53" fill="#68e1fd"></rect>
        <path d="M238.59,93.56H228a1,1,0,0,1-1-1V61a1,1,0,0,1,1-1h10.61a1,1,0,0,1,1,1V92.56A1,1,0,0,1,238.59,93.56Zm-9.61-2h8.61V62H229Z"
              fill="#093f68"></path>
        <rect x="146.38" y="92.56" width="107.23" height="146.41" rx="10.51" fill="#68e1fd"></rect>
        <path d="M243.1,240H156.9a11.53,11.53,0,0,1-11.52-11.51V103.08A11.54,11.54,0,0,1,156.9,91.56h86.2a11.54,11.54,0,0,1,11.52,11.52V228.46A11.53,11.53,0,0,1,243.1,240ZM156.9,93.56a9.53,9.53,0,0,0-9.52,9.52V228.46A9.52,9.52,0,0,0,156.9,238h86.2a9.52,9.52,0,0,0,9.52-9.51V103.08a9.53,9.53,0,0,0-9.52-9.52Z"
              fill="#093f68"></path>
        <path d="M229.84,159.57H170.16A12.24,12.24,0,0,1,158,148.32l-4.53-55.76h93.14L242,148.32A12.24,12.24,0,0,1,229.84,159.57Z"
              fill="#f56132"></path>
        <path d="M229.84,160.57H170.16A13.32,13.32,0,0,1,157,148.4l-4.53-55.76a1.05,1.05,0,0,1,.26-.76,1,1,0,0,1,.74-.32h93.14a1,1,0,0,1,.74.32,1.05,1.05,0,0,1,.26.76L243,148.4A13.32,13.32,0,0,1,229.84,160.57Zm-75.33-67L159,148.24a11.3,11.3,0,0,0,11.2,10.33h59.68A11.3,11.3,0,0,0,241,148.24l4.45-54.68Z"
              fill="#093f68"></path>
        <path d="M175.28,168.76a2.29,2.29,0,0,1-3.86,0c-1.4-2.17-3-5.07-3-6.65V92.56h9.95v69.55C178.32,163.69,176.67,166.59,175.28,168.76Z"
              fill="#fff"></path>
        <path d="M173.35,170.82a3.29,3.29,0,0,1-2.78-1.52c-3.2-5-3.2-6.65-3.2-7.19V92.56a1,1,0,0,1,1-1h9.95a1,1,0,0,1,1,1v69.55c0,.54,0,2.2-3.2,7.19h0A3.29,3.29,0,0,1,173.35,170.82Zm-4-77.26v68.55c0,.48.28,2.06,2.89,6.11a1.32,1.32,0,0,0,2.17,0c2.61-4.05,2.89-5.63,2.89-6.11V93.56Zm5.91,75.2h0Z"
              fill="#093f68"></path>
        <path d="M165.39,142.46v7.62a3.49,3.49,0,0,0,3.49,3.49h8.93a3.49,3.49,0,0,0,3.49-3.49v-7.62a3.5,3.5,0,0,0-3.49-3.5h-8.93A3.5,3.5,0,0,0,165.39,142.46Zm10.76,8.1h-5.61a1.87,1.87,0,0,1-1.87-1.87v-4.83a1.87,1.87,0,0,1,1.87-1.88h5.61a1.88,1.88,0,0,1,1.88,1.88v4.83A1.88,1.88,0,0,1,176.15,150.56Z"
              fill="#ffbc0e"></path>
        <path d="M177.81,154.57h-8.93a4.5,4.5,0,0,1-4.49-4.49v-7.62a4.5,4.5,0,0,1,4.49-4.5h8.93a4.5,4.5,0,0,1,4.49,4.5v7.62A4.5,4.5,0,0,1,177.81,154.57ZM168.88,140a2.5,2.5,0,0,0-2.49,2.5v7.62a2.5,2.5,0,0,0,2.49,2.49h8.93a2.5,2.5,0,0,0,2.49-2.49v-7.62a2.5,2.5,0,0,0-2.49-2.5Zm7.27,11.6h-5.61a2.87,2.87,0,0,1-2.87-2.87v-4.83a2.87,2.87,0,0,1,2.87-2.88h5.61a2.88,2.88,0,0,1,2.88,2.88v4.83A2.88,2.88,0,0,1,176.15,151.56ZM170.54,143a.87.87,0,0,0-.87.88v4.83a.87.87,0,0,0,.87.87h5.61a.88.88,0,0,0,.88-.87v-4.83a.88.88,0,0,0-.88-.88Z"
              fill="#093f68"></path>
        <rect x="170.95" y="136.49" width="4.8" height="8.26" rx="2.4" fill="#ffbc0e"></rect>
        <path d="M173.35,145.74a3.4,3.4,0,0,1-3.4-3.39v-3.47a3.4,3.4,0,0,1,6.79,0v3.47A3.39,3.39,0,0,1,173.35,145.74Zm0-8.25a1.39,1.39,0,0,0-1.4,1.39v3.47a1.4,1.4,0,0,0,2.79,0v-3.47A1.39,1.39,0,0,0,173.35,137.49Z"
              fill="#093f68"></path>
        <path d="M228.58,168.76a2.29,2.29,0,0,1-3.86,0c-1.39-2.17-3-5.07-3-6.65V92.56h9.95v69.55C231.63,163.69,230,166.59,228.58,168.76Z"
              fill="#fff"></path>
        <path d="M226.65,170.82a3.29,3.29,0,0,1-2.77-1.52c-3.2-5-3.2-6.65-3.2-7.19V92.56a1,1,0,0,1,1-1h9.95a1,1,0,0,1,1,1v69.55c0,.54,0,2.2-3.2,7.19h0A3.29,3.29,0,0,1,226.65,170.82Zm-4-77.26v68.55c0,.48.28,2.06,2.89,6.11a1.32,1.32,0,0,0,2.17,0c2.61-4.05,2.89-5.63,2.89-6.11V93.56Zm5.9,75.2h0Z"
              fill="#093f68"></path>
        <path d="M218.7,142.46v7.62a3.49,3.49,0,0,0,3.49,3.49h8.93a3.49,3.49,0,0,0,3.49-3.49v-7.62a3.5,3.5,0,0,0-3.49-3.5h-8.93A3.5,3.5,0,0,0,218.7,142.46Zm10.76,8.1h-5.61a1.88,1.88,0,0,1-1.88-1.87v-4.83a1.88,1.88,0,0,1,1.88-1.88h5.61a1.87,1.87,0,0,1,1.87,1.88v4.83A1.87,1.87,0,0,1,229.46,150.56Z"
              fill="#ffbc0e"></path>
        <path d="M231.12,154.57h-8.93a4.5,4.5,0,0,1-4.49-4.49v-7.62a4.5,4.5,0,0,1,4.49-4.5h8.93a4.5,4.5,0,0,1,4.49,4.5v7.62A4.5,4.5,0,0,1,231.12,154.57ZM222.19,140a2.5,2.5,0,0,0-2.49,2.5v7.62a2.5,2.5,0,0,0,2.49,2.49h8.93a2.5,2.5,0,0,0,2.49-2.49v-7.62a2.5,2.5,0,0,0-2.49-2.5Zm7.27,11.6h-5.61a2.88,2.88,0,0,1-2.88-2.87v-4.83a2.88,2.88,0,0,1,2.88-2.88h5.61a2.87,2.87,0,0,1,2.87,2.88v4.83A2.87,2.87,0,0,1,229.46,151.56ZM223.85,143a.88.88,0,0,0-.88.88v4.83a.88.88,0,0,0,.88.87h5.61a.87.87,0,0,0,.87-.87v-4.83a.87.87,0,0,0-.87-.88Z"
              fill="#093f68"></path>
        <rect x="224.26" y="136.49" width="4.8" height="8.26" rx="2.4" fill="#ffbc0e"></rect>
        <path d="M226.65,145.74a3.39,3.39,0,0,1-3.39-3.39v-3.47a3.4,3.4,0,0,1,6.79,0v3.47A3.4,3.4,0,0,1,226.65,145.74Zm0-8.25a1.39,1.39,0,0,0-1.39,1.39v3.47a1.4,1.4,0,0,0,2.79,0v-3.47A1.39,1.39,0,0,0,226.65,137.49Z"
              fill="#093f68"></path>
        <rect x="160.19" y="177.31" width="79.62" height="47.86" rx="9.54" fill="#f56132"></rect>
        <path d="M230.27,226.17H169.73a10.55,10.55,0,0,1-10.54-10.54V186.85a10.55,10.55,0,0,1,10.54-10.54h60.54a10.55,10.55,0,0,1,10.54,10.54v28.78A10.55,10.55,0,0,1,230.27,226.17Zm-60.54-47.86a8.55,8.55,0,0,0-8.54,8.54v28.78a8.55,8.55,0,0,0,8.54,8.54h60.54a8.55,8.55,0,0,0,8.54-8.54V186.85a8.55,8.55,0,0,0-8.54-8.54Z"
              fill="#093f68"></path>
        <path d="M239.81,186.85v2H160.19v-2a9.54,9.54,0,0,1,9.54-9.54h60.54A9.54,9.54,0,0,1,239.81,186.85Z"
              fill="#ffbc0e"></path>
        <path d="M239.81,189.85H160.19a1,1,0,0,1-1-1v-2a10.55,10.55,0,0,1,10.54-10.54h60.54a10.55,10.55,0,0,1,10.54,10.54v2A1,1,0,0,1,239.81,189.85Zm-78.62-2h77.62v-1a8.55,8.55,0,0,0-8.54-8.54H169.73a8.55,8.55,0,0,0-8.54,8.54Z"
              fill="#093f68"></path>
        <path d="M226.71,188.85h4.68a0,0,0,0,1,0,0v5.69a2.34,2.34,0,0,1-2.34,2.34h0a2.34,2.34,0,0,1-2.34-2.34v-5.69A0,0,0,0,1,226.71,188.85Z"
              fill="#fff"></path>
        <path d="M229.05,197.88a3.35,3.35,0,0,1-3.34-3.34v-5.69a1,1,0,0,1,1-1h4.68a1,1,0,0,1,1,1v5.69A3.35,3.35,0,0,1,229.05,197.88Zm-1.34-8v4.69a1.34,1.34,0,0,0,2.68,0v-4.69Z"
              fill="#093f68"></path>
        <path d="M280.58,156.74v-3.36H257.12v3.36a5.89,5.89,0,0,0,4,5.58,5.89,5.89,0,0,0-4,5.57v14.49h23.46V167.89a5.87,5.87,0,0,0-4-5.57A5.88,5.88,0,0,0,280.58,156.74Z"
              fill="#70cc40"></path>
        <path d="M280.58,183.38H257.12a1,1,0,0,1-1-1V167.89a6.86,6.86,0,0,1,2.85-5.57,6.86,6.86,0,0,1-2.85-5.58v-3.36a1,1,0,0,1,1-1h23.46a1,1,0,0,1,1,1v3.36a6.86,6.86,0,0,1-2.85,5.58,6.86,6.86,0,0,1,2.85,5.57v14.49A1,1,0,0,1,280.58,183.38Zm-22.46-2h21.46V167.89a4.86,4.86,0,0,0-3.33-4.62,1,1,0,0,1,0-1.9,4.88,4.88,0,0,0,3.33-4.63v-2.36H258.12v2.36a4.88,4.88,0,0,0,3.34,4.63,1,1,0,0,1,0,1.9,4.86,4.86,0,0,0-3.34,4.62Z"
              fill="#093f68"></path>
        <rect x="255.85" y="147.68" width="26.01" height="5.7" rx="1.96" fill="#fff"></rect>
        <path d="M279.9,154.38H257.81a3,3,0,0,1-3-3v-1.79a3,3,0,0,1,3-2.95H279.9a3,3,0,0,1,3,2.95v1.79A3,3,0,0,1,279.9,154.38Zm-22.09-5.7a1,1,0,0,0-1,.95v1.79a1,1,0,0,0,1,1H279.9a1,1,0,0,0,1-1v-1.79a1,1,0,0,0-1-.95Z"
              fill="#093f68"></path>
        <path d="M131.49,151.31h0a13,13,0,0,1,13,13v15.2a0,0,0,0,1,0,0h-25.9a0,0,0,0,1,0,0v-15.2A13,13,0,0,1,131.49,151.31Z"
              fill="#fff"></path>
        <path d="M144.45,180.47H118.54a1,1,0,0,1-1-1v-15.2a14,14,0,1,1,27.91,0v15.2A1,1,0,0,1,144.45,180.47Zm-24.91-2h23.91v-14.2a12,12,0,1,0-23.91,0Z"
              fill="#093f68"></path>
        <path d="M116.53,169.82h29.93a0,0,0,0,1,0,0V229.4a0,0,0,0,1,0,0h-17.7a12.23,12.23,0,0,1-12.23-12.23V169.82A0,0,0,0,1,116.53,169.82Z"
              fill="#68e1fd"></path>
        <path d="M146.46,230.4h-17.7a13.24,13.24,0,0,1-13.23-13.23V169.82a1,1,0,0,1,1-1h29.93a1,1,0,0,1,1,1V229.4A1,1,0,0,1,146.46,230.4Zm-28.93-59.58v46.35a11.25,11.25,0,0,0,11.23,11.23h16.7V170.82Z"
              fill="#093f68"></path>
        <rect x="124.81" y="143.52" width="13.37" height="10.05" fill="#ffbc0e"></rect>
        <path d="M138.18,154.57H124.81a1,1,0,0,1-1-1v-10a1,1,0,0,1,1-1h13.37a1,1,0,0,1,1,1v10A1,1,0,0,1,138.18,154.57Zm-12.37-2h11.37v-8H125.81Z"
              fill="#093f68"></path>
        <path d="M265.77,169.82h17.7a0,0,0,0,1,0,0V229.4a0,0,0,0,1,0,0H253.54a0,0,0,0,1,0,0V182A12.23,12.23,0,0,1,265.77,169.82Z"
              transform="translate(537.01 399.22) rotate(-180)" fill="#68e1fd"></path>
        <path d="M271.24,230.4h-17.7a1,1,0,0,1-1-1V169.82a1,1,0,0,1,1-1h29.93a1,1,0,0,1,1,1v47.35A13.24,13.24,0,0,1,271.24,230.4Zm-16.7-2h16.7a11.25,11.25,0,0,0,11.23-11.23V170.82H254.54Z"
              fill="#093f68"></path>
        <path d="M266.69,163.32h-5.55a1,1,0,0,1,0-2h5.55a1,1,0,0,1,0,2Z" fill="#093f68"></path>
        <path d="M210.56,127.07H189.44a1,1,0,0,1-1-1V110a1,1,0,0,1,1-1h21.12a1,1,0,0,1,1,1v16A1,1,0,0,1,210.56,127.07Zm-20.12-2h19.12V111H190.44Z"
              fill="#093f68"></path>
        <path d="M200,117.59a1,1,0,0,1-.53-.15l-10.55-6.57a1,1,0,1,1,1.05-1.7l10,6.24,10-6.24a1,1,0,1,1,1.05,1.7l-10.55,6.57A1,1,0,0,1,200,117.59Z"
              fill="#093f68"></path>
        <path d="M211.4,84.25v8.31h-5.23v-8a6.18,6.18,0,0,0-12.35,0v8H188.6V84.25a11.4,11.4,0,1,1,22.8,0Z"
              fill="#68e1fd"></path>
        <path d="M211.4,93.56h-5.23a1,1,0,0,1-1-1v-8a5.17,5.17,0,1,0-10.34,0v8a1,1,0,0,1-1,1H188.6a1,1,0,0,1-1-1V84.25a12.4,12.4,0,0,1,24.8,0v8.31A1,1,0,0,1,211.4,93.56Zm-4.23-2h3.23V84.25a10.4,10.4,0,0,0-20.8,0v7.31h3.23v-7a7.17,7.17,0,1,1,14.34,0Z"
              fill="#093f68"></path>
        <path d="M146.38,176.69H116.53a1,1,0,0,1,0-2h29.85a1,1,0,0,1,0,2Z" fill="#093f68"></path>
        <path d="M283.43,176.69H253.58a1,1,0,1,1,0-2h29.85a1,1,0,0,1,0,2Z" fill="#093f68"></path>
    </g>
</svg>