<svg xmlns="http://www.w3.org/2000/svg" viewBox="0 0 400 300" width="240" height="180"
     class="illustration styles_illustrationTablet__1DWOa">
    <g id="_197_adventure_outline" data-name="#197_adventure_outline">
        <polygon
                points="298.81 111.9 275.18 222.08 249.43 209.63 243.3 206.67 238.88 204.52 230.69 204.75 198.57 205.65 178.16 195.77 162.28 188.09 121.96 189.22 145.59 79.04 166.95 78.45 168.34 78.41 185.9 77.92 216.77 92.84 217.24 93.08 222.2 95.47 257.61 94.48 262.51 94.35 298.81 111.9"
                fill="#68e1fd"></polygon>
        <path d="M275.18,223.08a1,1,0,0,1-.44-.1l-36.07-17.45-40.07,1.12a1.07,1.07,0,0,1-.47-.1L162.06,189.1,122,190.22a1,1,0,0,1-.8-.36A1,1,0,0,1,121,189L144.61,78.83a1,1,0,0,1,.95-.79l40.32-1.12a1.06,1.06,0,0,1,.46.1l36.07,17.44,40.07-1.11a1.1,1.1,0,0,1,.47.1L299.24,111a1,1,0,0,1,.55,1.11L276.16,222.29a1,1,0,0,1-.54.69A1,1,0,0,1,275.18,223.08Zm-36.3-19.56a1.13,1.13,0,0,1,.44.1l35.15,17,23.2-108.17L262.3,95.35l-40.07,1.12a1,1,0,0,1-.46-.1l-5.46-2.64L185.69,78.92,146.41,80l-23.2,108.17,39-1.1a1.19,1.19,0,0,1,.46.1l36.08,17.46,40.07-1.13Z"
              fill="#093f68"></path>
        <path d="M298.81,111.9,275.18,222.08l-25.75-12.45-6.13-3a15.76,15.76,0,0,1,6.4-3.83c2.88-.86,6-.89,8.71-2.25A10,10,0,0,0,263,188.46c-1-2.44-3-4.79-2.32-7.33.46-1.85,2.17-3.06,3.72-4.18a62,62,0,0,0,10.47-9.61,14.4,14.4,0,0,0,2.74-4.18,24.71,24.71,0,0,0,.9-5.77c1.14-9.56,8.26-18.43,6.32-27.85-1.11-5.42-5.05-9.77-9-13.63-3.14-3-6.55-6.06-10.76-7.22-2.2-.61-4.65-.73-6.41-2.18a6.94,6.94,0,0,1-2.15-3.46,11.27,11.27,0,0,1,1.06-8.57l4.91-.13Z"
              fill="#70cc40"></path>
        <path d="M275.18,223.08a1,1,0,0,1-.44-.1l-31.87-15.41a1,1,0,0,1-.27-1.62,17,17,0,0,1,6.81-4.07,33.92,33.92,0,0,1,3.51-.77,18.28,18.28,0,0,0,5-1.41,9,9,0,0,0,4.15-10.88c-.25-.63-.59-1.27-.94-1.95-.92-1.78-2-3.79-1.42-6s2.39-3.51,4-4.69l.09-.06a60.76,60.76,0,0,0,10.29-9.45,13.56,13.56,0,0,0,2.56-3.88,14.87,14.87,0,0,0,.69-4c.05-.52.09-1,.16-1.55a49.14,49.14,0,0,1,3.36-11.53c2.09-5.48,4.07-10.66,3-16-1-5.07-4.81-9.3-8.73-13.11-3-2.92-6.28-5.86-10.32-7-.57-.15-1.15-.27-1.74-.4a11.31,11.31,0,0,1-5.05-2,7.92,7.92,0,0,1-2.46-4A12.21,12.21,0,0,1,256.72,94a1,1,0,0,1,.86-.53l4.9-.13a1.07,1.07,0,0,1,.47.1L299.24,111a1,1,0,0,1,.55,1.11L276.16,222.29a1,1,0,0,1-.54.69A1,1,0,0,1,275.18,223.08Zm-30.09-16.66,29.38,14.21,23.2-108.17L262.3,95.35l-4.07.11a10.15,10.15,0,0,0-.73,7.3,6.11,6.11,0,0,0,1.82,3,9.65,9.65,0,0,0,4.19,1.55c.63.14,1.25.27,1.86.43,4.5,1.24,8.13,4.51,11.18,7.48,4.15,4,8.15,8.54,9.3,14.14,1.21,5.91-1,11.61-3.07,17.12a48.24,48.24,0,0,0-3.24,11c-.06.49-.1,1-.14,1.48a16.93,16.93,0,0,1-.81,4.52,15.37,15.37,0,0,1-2.92,4.48A62.87,62.87,0,0,1,265,177.76l-.09.06c-1.42,1-2.88,2.09-3.25,3.55s.42,3,1.26,4.58a23.32,23.32,0,0,1,1,2.14,11,11,0,0,1-5.11,13.39,20.4,20.4,0,0,1-5.58,1.6,30,30,0,0,0-3.3.72A14.6,14.6,0,0,0,245.09,206.42Z"
              fill="#093f68"></path>
        <path d="M203.09,128c0,3.71-2.22,7.18-5,9.29-6.45,4.84-12.67,2.26-19.6,4.22s-13.59,5.89-20.7,5.11a9.46,9.46,0,0,1-5.57-2.35,6.87,6.87,0,0,1-2-6.14,9.28,9.28,0,0,1,4.15-5.54c1.86-1.29,3.94-2.26,5.59-3.89,2.69-2.66,4-6.75,4.21-10.68.41-6.83-1.86-10.74-4.14-16.46-1.85-4.65.3-11.42,2.42-16.27a26.56,26.56,0,0,1,4.48-6.87l1.4,0,17.56-.49,30.87,14.92.47.24c-1.61,3.59-6.41,7.65-8.86,10-4.15,4-10.37,6-9.51,12.26a12.76,12.76,0,0,0,.75,2.7C200.89,121.37,203.05,124.38,203.09,128Z"
              fill="#70cc40"></path>
        <path d="M159.66,147.76a16.43,16.43,0,0,1-2-.11,10.23,10.23,0,0,1-6.15-2.62,7.87,7.87,0,0,1-2.28-7.05c.57-2.91,2.8-5,4.57-6.18.62-.43,1.27-.83,1.92-1.22a19.52,19.52,0,0,0,3.53-2.55c2.25-2.23,3.68-5.88,3.92-10,.32-5.5-1.14-9-3-13.37-.35-.85-.72-1.73-1.09-2.66-2-5,.23-12,2.44-17a27.09,27.09,0,0,1,4.65-7.14,1,1,0,0,1,.71-.33l1.39,0,17.57-.49a1,1,0,0,1,.46.1L217.7,92.19a1,1,0,0,1,.45,1.3c-1.41,3.15-5,6.52-7.64,9-.53.49-1,.94-1.44,1.35a37,37,0,0,1-3.77,3c-3.34,2.45-6,4.38-5.44,8.35a11.57,11.57,0,0,0,.69,2.47c.36,1,.82,1.9,1.26,2.82,1.11,2.32,2.25,4.72,2.28,7.51h0a13.07,13.07,0,0,1-5.39,10.09c-4.27,3.2-8.48,3.35-12.56,3.49a30.74,30.74,0,0,0-7.38.89c-2,.56-4,1.32-6,2.05C168.54,146.14,164.18,147.76,159.66,147.76Zm7.75-68.32a25,25,0,0,0-4,6.3c-2,4.68-4.13,11.17-2.41,15.49.36.92.72,1.78,1.08,2.62,1.87,4.46,3.48,8.3,3.13,14.27-.26,4.63-1.9,8.76-4.51,11.33a20.54,20.54,0,0,1-3.88,2.83c-.62.38-1.24.76-1.84,1.17a8.44,8.44,0,0,0-3.74,4.91,5.86,5.86,0,0,0,1.7,5.22,8.26,8.26,0,0,0,5,2.08c4.76.53,9.55-1.25,14.18-3,2-.75,4.07-1.52,6.14-2.11a32.81,32.81,0,0,1,7.85-1c3.94-.14,7.66-.27,11.42-3.09,2.24-1.7,4.63-4.82,4.6-8.48,0-2.35-1-4.45-2.09-6.67-.45-.95-.92-1.93-1.32-2.95a14.47,14.47,0,0,1-.8-2.91c-.7-5.16,2.82-7.75,6.24-10.26a34,34,0,0,0,3.56-2.86c.43-.42.92-.88,1.46-1.38,2.25-2.11,5.26-4.92,6.75-7.49l-30.21-14.6Z"
              fill="#093f68"></path>
        <path d="M232.76,182.5a24.48,24.48,0,0,0-2.49,5.33c-1.46,5.11-.1,11.86.42,16.92l-32.12.91-20.41-9.88c3-3.2,6.56-8.41,10.3-10.3,6-3,12.78-1.08,19.11-5.14a15.53,15.53,0,0,0,5.35-5.28c1.55-2.78,1.88-6.12,2.65-9.25a30.21,30.21,0,0,1,8.53-14.68c2.33-2.15,5.09-3.87,8-4.12a7.06,7.06,0,0,1,7.18,4.17c1,2.51.62,5.57-.13,8.32a38.34,38.34,0,0,1-2.29,6.23,17.66,17.66,0,0,0-1.93,5.2,25.9,25.9,0,0,0,.09,3.94A13.71,13.71,0,0,1,232.76,182.5Z"
              fill="#70cc40"></path>
        <path d="M198.57,206.66a1.13,1.13,0,0,1-.44-.1l-17.22-8.34c-3.9-1.89-3.9-1.89-3.72-2.67a.94.94,0,0,1,.24-.45c.78-.85,1.61-1.83,2.49-2.88,2.42-2.89,5.17-6.16,8.09-7.63a25.82,25.82,0,0,1,8.93-2.19c3.52-.42,6.84-.82,10.09-2.9a14.23,14.23,0,0,0,5-4.93,22,22,0,0,0,2-6.4c.18-.87.36-1.74.57-2.6a31.09,31.09,0,0,1,8.83-15.18c2.88-2.66,5.77-4.14,8.59-4.37a8,8,0,0,1,8.19,4.78c.95,2.3.92,5.23-.1,9a39.1,39.1,0,0,1-2.34,6.39l-.37.77a13.56,13.56,0,0,0-1.48,4.12,13.3,13.3,0,0,0,0,2.52c0,.42.06.85.08,1.27a14.69,14.69,0,0,1-2.39,8.15h0l-.25.45a21.17,21.17,0,0,0-2.14,4.66c-1.13,3.92-.49,9,.07,13.4.14,1.1.27,2.16.38,3.15a1,1,0,0,1-.25.76,1,1,0,0,1-.72.34l-32.12.91Zm-18.78-11.2,19,9.19,30.79-.87c-.08-.65-.16-1.34-.25-2-.59-4.64-1.25-9.89,0-14.2a23,23,0,0,1,2.33-5.09l.25-.45c1.26-2.25,2.22-4.21,2.13-7.1,0-.4,0-.8-.07-1.2a14.75,14.75,0,0,1,0-2.9,15.09,15.09,0,0,1,1.67-4.75l.36-.75a36.69,36.69,0,0,0,2.22-6.07c.9-3.29.95-5.8.18-7.67a6,6,0,0,0-6.17-3.56c-2.37.2-4.86,1.5-7.41,3.85a29,29,0,0,0-8.23,14.2c-.21.82-.38,1.67-.56,2.51a23.89,23.89,0,0,1-2.2,7,16,16,0,0,1-5.68,5.64c-3.63,2.33-7.34,2.78-10.93,3.2-2.92.35-5.67.68-8.27,2s-5.16,4.4-7.46,7.14C180.88,194.19,180.33,194.84,179.79,195.46Zm53-13h0Z"
              fill="#093f68"></path>
        <path d="M162.27,189.09l-.21,0a1,1,0,0,1-.77-1.19L184.92,77.71a1,1,0,0,1,2,.42L163.25,188.3A1,1,0,0,1,162.27,189.09Z"
              fill="#093f68"></path>
        <path d="M198.57,206.66a.76.76,0,0,1-.21,0,1,1,0,0,1-.77-1.18l23.63-110.2a1,1,0,0,1,1.19-.76,1,1,0,0,1,.77,1.18l-23.63,110.2A1,1,0,0,1,198.57,206.66Z"
              fill="#093f68"></path>
        <path d="M238.88,205.52l-.21,0a1,1,0,0,1-.77-1.19L261.53,94.14a1,1,0,1,1,2,.42L239.86,204.73A1,1,0,0,1,238.88,205.52Z"
              fill="#093f68"></path>
        <path d="M134.2,174.83a1,1,0,0,1-.06-2l16.31-1.06a1,1,0,0,1,.13,2l-16.31,1.06Z" fill="#093f68"></path>
        <path d="M136.42,164.45a1,1,0,0,1,0-2l9.52-.56a1,1,0,1,1,.12,2l-9.53.56Z" fill="#093f68"></path>
        <path d="M227.07,124c1.28-.07,2.73-.4,3.74.4s.85,2.58,1.8,3.37c2,1.67,3.15-.17,5.37-.3,4.5-.25,5,5.69,8.77,5.91,1.83.11,3-2.24,2.44-4s-2.12-2.94-3.6-4l-2.77-2a4.58,4.58,0,0,1-2.2-2.68,7.74,7.74,0,0,1,.59-3c1.7-6.83-6-5.59-9.69-3.55C229.38,115.29,220.08,124.33,227.07,124Z"
              fill="#70cc40"></path>
        <path d="M246.88,134.34h-.19c-2.22-.13-3.49-1.77-4.62-3.22s-2.17-2.8-4-2.69a5.43,5.43,0,0,0-1.73.48,3.7,3.7,0,0,1-4.33-.41,4,4,0,0,1-1.16-2.08,2.6,2.6,0,0,0-.63-1.28,3.44,3.44,0,0,0-2.29-.24l-.77.06h0c-2.48.13-3.28-.85-3.52-1.7-.92-3.23,6.09-9.27,7.44-10,2.46-1.34,7.33-2.73,9.91-.73,1,.76,2,2.32,1.23,5.4-.07.3-.17.6-.27.9a3.76,3.76,0,0,0-.3,1.66c.12.77.95,1.43,1.79,2l2.77,2c1.4,1,3.31,2.39,4,4.53a4.49,4.49,0,0,1-.76,4A3.18,3.18,0,0,1,246.88,134.34Zm-8.63-7.92c2.71,0,4.2,1.91,5.4,3.46,1,1.28,1.85,2.38,3.16,2.45a1.26,1.26,0,0,0,1-.53,2.51,2.51,0,0,0,.42-2.16c-.44-1.39-1.72-2.41-3.24-3.5l-2.77-2c-.87-.62-2.33-1.67-2.6-3.33a5.51,5.51,0,0,1,.38-2.6c.08-.26.17-.51.23-.76.41-1.64.24-2.76-.51-3.34-1.51-1.16-5.21-.47-7.73.9-1.8,1-6.89,6.24-6.48,7.7,0,.11.43.31,1.5.25h0l.69,0a5,5,0,0,1,3.72.67,4.25,4.25,0,0,1,1.29,2.24,2.69,2.69,0,0,0,.53,1.14c.83.69,1.26.52,2.3.1a7.21,7.21,0,0,1,2.37-.63Z"
              fill="#093f68"></path>
        <path d="M274.64,142.52c1.89-1.24,5-5.89,1.68-7.41-3.05-1.38-4.85,3.93-5.3,5.89a2.67,2.67,0,0,0-.09,1,1.7,1.7,0,0,0,1.65,1.24A3.66,3.66,0,0,0,274.64,142.52Z"
              fill="#70cc40"></path>
        <path d="M272.64,144.25h-.09a2.69,2.69,0,0,1-2.6-2.06,3.49,3.49,0,0,1,.1-1.41c.12-.53,1.25-5.25,3.87-6.55a3.15,3.15,0,0,1,2.81,0,3.3,3.3,0,0,1,2.06,2.81c.19,2.44-2,5.3-3.6,6.35h0A4.79,4.79,0,0,1,272.64,144.25Zm2.7-8.37a1.1,1.1,0,0,0-.52.14c-1.35.67-2.45,3.55-2.82,5.2a1.82,1.82,0,0,0-.08.61c0,.21.37.41.68.42a2.55,2.55,0,0,0,1.49-.57h0c1.14-.75,2.82-3,2.7-4.52a1.26,1.26,0,0,0-.89-1.14A1.36,1.36,0,0,0,275.34,135.88Z"
              fill="#093f68"></path>
        <path d="M113.4,113.82a11.54,11.54,0,1,0,15.36,5.52A11.54,11.54,0,0,0,113.4,113.82Zm8,16.93a7.18,7.18,0,1,1,3.44-9.56A7.17,7.17,0,0,1,121.38,130.75Z"
              fill="#68e1fd"></path>
        <path d="M118.33,136.81A12.56,12.56,0,0,1,106.52,120a12.39,12.39,0,0,1,6.45-7.1h0a12.54,12.54,0,1,1,5.36,23.89Zm0-23.1a10.58,10.58,0,0,0-4.49,1h0a10.46,10.46,0,1,0,4.49-1Zm-4.91.11h0Zm4.92,18.63a8.29,8.29,0,0,1-2.77-.49,8.07,8.07,0,1,1,2.77.49Zm0-14.37a6.18,6.18,0,1,0,5.6,3.54A6.17,6.17,0,0,0,118.31,118.08Z"
              fill="#093f68"></path>
        <path d="M123.21,125.54h.05a3.46,3.46,0,0,1,3.46,3.46v14.85a0,0,0,0,1,0,0h-7a0,0,0,0,1,0,0V129A3.46,3.46,0,0,1,123.21,125.54Z"
              transform="translate(-45.67 65.4) rotate(-25.24)" fill="#68e1fd"></path>
        <path d="M124,145.46a1,1,0,0,1-.34-.05,1,1,0,0,1-.57-.52l-6.33-13.43a4.49,4.49,0,0,1,8.12-3.83l6.33,13.43a1,1,0,0,1-.48,1.33l-6.31,3A1,1,0,0,1,124,145.46Zm-3.16-18.38a2.39,2.39,0,0,0-1,.23,2.48,2.48,0,0,0-1.32,1.42,2.45,2.45,0,0,0,.09,1.88l5.91,12.52L129,141l-5.91-12.52A2.46,2.46,0,0,0,120.83,127.08Z"
              fill="#093f68"></path>
        <circle cx="142.36" cy="173.99" r="41.15" fill="#68e1fd"></circle>
        <path d="M142.42,216.14a42.14,42.14,0,1,1,17.91-4A42.22,42.22,0,0,1,142.42,216.14Zm-.09-82.33a40.17,40.17,0,1,0,36.35,23.06h0a40.29,40.29,0,0,0-36.35-23.06Z"
              fill="#093f68"></path>
        <circle cx="142.36" cy="173.99" r="33.68" fill="#fff"></circle>
        <path d="M142.41,208.66a34.66,34.66,0,1,1,14.73-3.3A34.71,34.71,0,0,1,142.41,208.66Zm-.08-67.36a32.76,32.76,0,1,0,11.07,1.94A32.67,32.67,0,0,0,142.33,141.3Z"
              fill="#093f68"></path>
        <path d="M148.15,180.05,127.93,193a1.08,1.08,0,0,1-1.59-1.32l9-22.26a3.18,3.18,0,0,1,1.23-1.48L156.78,155a1.08,1.08,0,0,1,1.59,1.32l-9,22.26A3.23,3.23,0,0,1,148.15,180.05Z"
              fill="#f56132"></path>
        <path d="M127.34,194.17a2.1,2.1,0,0,1-1.33-.49,2.06,2.06,0,0,1-.6-2.39l9-22.26a4.12,4.12,0,0,1,1.61-1.94l20.22-12.94a2.09,2.09,0,0,1,3.06,2.54l-9,22.26a4.2,4.2,0,0,1-1.62,1.94l-20.22,12.94A2.13,2.13,0,0,1,127.34,194.17Zm30-38.36-.05,0L137.1,168.77a2.13,2.13,0,0,0-.84,1l-9,22.26a.07.07,0,0,0,0,.1s.07,0,.1,0l20.22-12.93h0a2.23,2.23,0,0,0,.84-1l9-22.26a.07.07,0,0,0,0-.1Z"
              fill="#093f68"></path>
        <circle cx="142.36" cy="173.99" r="3.81" fill="#093f68"></circle>
        <path d="M130.78,150.42a1,1,0,0,1-.91-.57L128,145.93a1,1,0,0,1,1.81-.85l1.85,3.91a1,1,0,0,1-.48,1.33A.92.92,0,0,1,130.78,150.42Z"
              fill="#093f68"></path>
        <path d="M155.78,203.47a1,1,0,0,1-.9-.57L153,199a1,1,0,0,1,1.81-.85l1.85,3.92a1,1,0,0,1-.48,1.33A1.07,1.07,0,0,1,155.78,203.47Z"
              fill="#093f68"></path>
        <path d="M151.54,149.43a1,1,0,0,1-.34-.06,1,1,0,0,1-.6-1.28l1.46-4.08a1,1,0,0,1,1.89.68l-1.47,4.08A1,1,0,0,1,151.54,149.43Z"
              fill="#093f68"></path>
        <path d="M131.71,204.62a1,1,0,0,1-.34-.05,1,1,0,0,1-.6-1.28l1.46-4.08a1,1,0,0,1,1.88.68L132.65,204A1,1,0,0,1,131.71,204.62Z"
              fill="#093f68"></path>
        <path d="M166.92,163.41a1,1,0,0,1-.9-.57,1,1,0,0,1,.48-1.34l3.92-1.84a1,1,0,1,1,.85,1.81l-3.92,1.84A.94.94,0,0,1,166.92,163.41Z"
              fill="#093f68"></path>
        <path d="M113.87,188.42a1,1,0,0,1-.91-.58,1,1,0,0,1,.48-1.33l3.92-1.84a1,1,0,1,1,.85,1.8l-3.91,1.85A1.12,1.12,0,0,1,113.87,188.42Z"
              fill="#093f68"></path>
        <path d="M174.05,186.38a1,1,0,0,1-.34-.06l-4.36-1.57a1,1,0,1,1,.68-1.88l4.36,1.57a1,1,0,0,1,.6,1.27A1,1,0,0,1,174.05,186.38Z"
              fill="#093f68"></path>
        <path d="M115,165.17a1,1,0,0,1-.34-.06l-4.35-1.57a1,1,0,1,1,.67-1.88l4.36,1.57a1,1,0,0,1,.6,1.27A1,1,0,0,1,115,165.17Z"
              fill="#093f68"></path>
        <path d="M235.93,122.34a1,1,0,0,1-1-.88l-2.14-17.25a1,1,0,0,1,2-.24l2.15,17.25a1,1,0,0,1-.87,1.11Z"
              fill="#093f68"></path>
        <circle cx="233.79" cy="104.09" r="6.14" fill="#fff"></circle>
        <path d="M233.79,111.23a7.14,7.14,0,1,1,7.09-8h0a7.16,7.16,0,0,1-6.21,8C234.37,111.21,234.08,111.23,233.79,111.23Zm0-12.28a4.44,4.44,0,0,0-.63,0,5.13,5.13,0,1,0,.63,0Z"
              fill="#093f68"></path>
        <path d="M273.5,183.49a1,1,0,0,1-1-.79l-3.61-17a1,1,0,0,1,.77-1.19,1,1,0,0,1,1.18.77l3.62,17a1,1,0,0,1-.77,1.19Z"
              fill="#093f68"></path>
        <circle cx="269.89" cy="165.49" r="6.14" fill="#fff"></circle>
        <path d="M269.87,172.63a7.17,7.17,0,0,1-7-5.66,7.14,7.14,0,0,1,10.88-7.47,7.07,7.07,0,0,1,3.09,4.5,7.15,7.15,0,0,1-5.5,8.47A7,7,0,0,1,269.87,172.63Zm0-12.29a5,5,0,0,0-1.08.12,5.14,5.14,0,0,0-1.73,9.34,5.07,5.07,0,0,0,3.87.71,5.15,5.15,0,0,0,4-6.09h0a5.17,5.17,0,0,0-5-4.08Z"
              fill="#093f68"></path>
        <path d="M219.48,195.24a1,1,0,0,1-1-.75l-4.32-16.84a1,1,0,1,1,1.94-.5L220.45,194a1,1,0,0,1-.72,1.22A1,1,0,0,1,219.48,195.24Z"
              fill="#093f68"></path>
        <circle cx="215.17" cy="177.4" r="6.14" fill="#ffbc0e"></circle>
        <path d="M215.17,184.54a7.13,7.13,0,1,1,1.77-.22A7.14,7.14,0,0,1,215.17,184.54Zm0-12.29a5.06,5.06,0,0,0-1.28.17,5.15,5.15,0,1,0,6.25,3.7h0a5.18,5.18,0,0,0-5-3.87Z"
              fill="#093f68"></path>
        <path d="M169.4,105.05a1,1,0,0,1-1-.77l-4-16.91a1,1,0,1,1,1.94-.46l4,16.9a1,1,0,0,1-.74,1.21A1,1,0,0,1,169.4,105.05Z"
              fill="#093f68"></path>
        <circle cx="165.37" cy="87.14" r="6.14" fill="#ffbc0e"></circle>
        <path d="M165.36,94.28a7.18,7.18,0,1,1,1.67-.2A6.87,6.87,0,0,1,165.36,94.28Zm0-12.28a4.92,4.92,0,0,0-1.2.14,5.14,5.14,0,1,0,3.88.62A5,5,0,0,0,165.38,82Z"
              fill="#093f68"></path>
    </g>
</svg>