<svg xmlns="http://www.w3.org/2000/svg" viewBox="0 0 400 300" width="240" height="180"
     class="illustration styles_illustrationTablet__1DWOa">
    <g id="_98_open_map_outline" data-name="#98_open_map_outline">
        <path d="M141.56,219.48s9.21-9.94,12.07-13.62l2.82,3.17-8.71,12.11Z" fill="#ffbc0e"></path>
        <path d="M147.74,222.14a1.17,1.17,0,0,1-.26,0l-6.18-1.66a1,1,0,0,1-.7-.69,1,1,0,0,1,.23-.95c.09-.1,9.21-10,12-13.55a1,1,0,0,1,.75-.38.94.94,0,0,1,.78.33l2.82,3.16a1,1,0,0,1,.07,1.25l-8.71,12.11A1,1,0,0,1,147.74,222.14Zm-4.32-3.2,3.91,1.05,7.84-10.89-1.5-1.69C151,210.66,145.73,216.43,143.42,218.94Z"
              fill="#093f68"></path>
        <polygon points="151.23 220.22 146.65 242.83 208.56 242.83 203.11 219.48 151.23 220.22"
                 fill="#093f68"></polygon>
        <path d="M208.56,243.83H146.65a1,1,0,0,1-1-1.2L150.25,220a1,1,0,0,1,1-.8l51.87-.74h0a1,1,0,0,1,1,.77l5.45,23.35a1,1,0,0,1-1,1.23Zm-60.69-2H207.3l-5-21.34-50.26.72Z"
              fill="#093f68"></path>
        <circle cx="180.3" cy="91.94" r="35.79" fill="#68e1fd"></circle>
        <path d="M180.3,128.73a36.79,36.79,0,1,1,36.78-36.79A36.83,36.83,0,0,1,180.3,128.73Zm0-71.58a34.79,34.79,0,1,0,34.78,34.79A34.83,34.83,0,0,0,180.3,57.15Z"
              fill="#093f68"></path>
        <ellipse cx="180.3" cy="106.71" rx="60.58" ry="40.34" transform="translate(-17.09 36.48) rotate(-11.03)"
                 fill="#68e1fd"></ellipse>
        <path d="M170.92,149a72,72,0,0,1-27.59-5.16c-13-5.42-21.34-14.42-23.47-25.34s2.22-22.38,12.23-32.29,24.22-16.94,40.29-20.07c33.33-6.5,64,6.42,68.35,28.79h0c4.37,22.38-19.2,45.87-52.52,52.37A91.08,91.08,0,0,1,170.92,149Zm18.69-82.55a88,88,0,0,0-16.84,1.65c-15.69,3.06-29.64,10-39.27,19.53s-13.67,20.25-11.68,30.49,9.91,18.72,22.28,23.87,28,6.4,43.73,3.35c32.24-6.29,55.09-28.73,50.94-50C235.36,77.81,214.74,66.44,189.61,66.44Z"
              fill="#093f68"></path>
        <path d="M189.75,76.6c21.61,0,30.77,13.62,30.77,13.62,1.3,1.94.63,8,.81,10.25a95.33,95.33,0,0,1-.59,20.26c-.31,2.46-.62,5,.24,7.37,1.12,3.07,4.15,5.39,4.46,8.65.47,4.84-5.29,8.93-4.13,13.64.53,2.13,2.35,3.65,3.46,5.54,1.9,3.23,1.57,7.44-.12,10.78-2.44,4.81-7.73,8.6-12.13,11.52-7.76,5.12-17.34,6.67-26.63,7-11.51.41-23.25-.93-34.09-5-6.77-2.53-21.89-9.19-17-19.28a26.91,26.91,0,0,1,3-4.24c2.09-2.82,3.5-6.6,2.13-9.84-.47-1.12-1.25-2.1-1.78-3.2-1.48-3.11-.74-6.9.92-9.92a27.85,27.85,0,0,0,2.47-4.67c.81-2.54.3-5.27.11-7.93-.65-9,3-18.49,6.79-26.56,1-2.08,2.3-5.94,4.33-7.35A70.92,70.92,0,0,1,189.75,76.6Z"
              fill="#725858"></path>
        <path d="M181.93,186.31a87,87,0,0,1-30.48-5.11c-6.85-2.56-15.52-6.89-17.95-12.94a9.22,9.22,0,0,1,.38-7.72,17.65,17.65,0,0,1,2.22-3.28c.3-.37.59-.74.87-1.12,2.3-3.1,3.06-6.41,2-8.85a12.24,12.24,0,0,0-.88-1.61,16.45,16.45,0,0,1-.88-1.55c-1.45-3-1.1-7.1.94-10.83.27-.48.55-1,.84-1.42a15.39,15.39,0,0,0,1.56-3.08,15,15,0,0,0,.2-6c-.05-.53-.1-1.06-.14-1.58-.67-9.35,3.1-18.92,6.88-27,.17-.37.36-.81.56-1.28,1-2.29,2.22-5.16,4.11-6.47A71.7,71.7,0,0,1,189.74,75.6h.07c21.7,0,31.15,13.48,31.54,14.05,1,1.53,1.05,4.46,1,8.12,0,1,0,2,0,2.62a95,95,0,0,1-.59,20.47c-.28,2.22-.6,4.74.19,6.89a14.9,14.9,0,0,0,2,3.37c1.16,1.66,2.36,3.38,2.57,5.54.25,2.62-1,4.92-2.28,7.14s-2.39,4.27-1.88,6.35a9.24,9.24,0,0,0,1.9,3.23,19.14,19.14,0,0,1,1.45,2c2,3.3,1.91,7.8-.09,11.74-2.45,4.83-7.44,8.58-12.47,11.9-6.77,4.48-15.4,6.76-27.14,7.17C184.58,186.28,183.25,186.31,181.93,186.31ZM189.75,76.6v1a69.31,69.31,0,0,0-36.43,10.5c-1.42,1-2.57,3.66-3.41,5.61-.21.49-.41.94-.59,1.33-3.67,7.9-7.33,17.17-6.69,26.07,0,.51.08,1,.13,1.53a16.65,16.65,0,0,1-.29,6.77,16.36,16.36,0,0,1-1.75,3.5c-.27.45-.54.89-.79,1.35-1.74,3.17-2.07,6.54-.89,9a14.67,14.67,0,0,0,.77,1.37,13.88,13.88,0,0,1,1,1.87c1.89,4.47-1,9.06-2.26,10.82-.3.4-.6.79-.91,1.17a16.18,16.18,0,0,0-2,2.91,7.2,7.2,0,0,0-.32,6.1c1.71,4.26,7.51,8.34,16.79,11.81,9.92,3.71,21.25,5.35,33.71,4.92,11.36-.41,19.65-2.58,26.1-6.85,4.81-3.17,9.56-6.72,11.8-11.13,1.69-3.34,1.75-7.11.15-9.82a17.73,17.73,0,0,0-1.31-1.83,10.89,10.89,0,0,1-2.26-4c-.7-2.85.71-5.37,2.07-7.8,1.15-2.05,2.23-4,2-6-.16-1.63-1.16-3.07-2.22-4.59a16.93,16.93,0,0,1-2.19-3.82c-1-2.61-.6-5.39-.29-7.83a93.79,93.79,0,0,0,.58-20.06c-.06-.71,0-1.69,0-2.82.05-2.32.12-5.83-.63-7-.38-.56-9.24-13.18-29.88-13.18h-.06Z"
              fill="#093f68"></path>
        <path d="M168.83,160.19h16.33c7.77,0,16.28-1.42,21.79,5.41,2.46,3,3.12,7.35,4.62,10.93,2.36,5.59,6.26,14.95,12.81,16.77a70.48,70.48,0,0,0,26,1.66,8.06,8.06,0,0,1,2.54,15.92,75.91,75.91,0,0,1-11.21.74,82.27,82.27,0,0,1-21.64-2.78c-5.23-1.45-12.82-4.85-17.08-10.12v21.49H151.23V177.8A17.61,17.61,0,0,1,168.83,160.19Z"
              fill="#68e1fd"></path>
        <path d="M203,221.21H151.23a1,1,0,0,1-1-1V177.8a18.63,18.63,0,0,1,18.6-18.61h16.33c1.13,0,2.28,0,3.43-.06,6.94-.18,14.12-.37,19.14,5.84,1.77,2.19,2.64,4.92,3.49,7.56.41,1.27.8,2.48,1.28,3.61l0,.11c2.27,5.39,6.06,14.41,12.1,16.09a69,69,0,0,0,25.6,1.63,9.06,9.06,0,0,1,2.84,17.9,77.45,77.45,0,0,1-11.37.75,82,82,0,0,1-21.91-2.82c-5-1.38-11.41-4.28-15.81-8.52v18.93A1,1,0,0,1,203,221.21Zm-50.76-2H202V198.72a1,1,0,0,1,1.78-.63c4,4.93,11.17,8.29,16.57,9.79a80.35,80.35,0,0,0,21.37,2.74,74.49,74.49,0,0,0,11-.73,7.06,7.06,0,1,0-2.22-13.95,70.65,70.65,0,0,1-26.43-1.68c-7-1.93-11-11.51-13.41-17.24l0-.1c-.51-1.22-.93-2.52-1.33-3.78-.8-2.47-1.61-5-3.15-6.92-4.39-5.43-10.77-5.27-17.53-5.09-1.17,0-2.33.06-3.48.06H168.83a16.63,16.63,0,0,0-16.6,16.61Z"
              fill="#093f68"></path>
        <path d="M191.07,162.4s-1.81,12.1-4.08,18.06L180.5,162.4Z" fill="#70cc40"></path>
        <path d="M187,181.46h0a1,1,0,0,1-.93-.67l-6.49-18.06a1,1,0,0,1,.94-1.33h10.57a1,1,0,0,1,.76.34,1,1,0,0,1,.23.8c-.08.5-1.85,12.28-4.13,18.27A1,1,0,0,1,187,181.46Zm-5.07-18.06,5,14a135,135,0,0,0,3-14Z"
              fill="#093f68"></path>
        <path d="M180.3,154.69h11a0,0,0,0,1,0,0V161a4.67,4.67,0,0,1-4.67,4.67H185A4.67,4.67,0,0,1,180.3,161v-6.34a0,0,0,0,1,0,0Z"
              fill="#ffc9b0"></path>
        <path d="M186.61,166.7H185A5.67,5.67,0,0,1,179.3,161v-6.34a1,1,0,0,1,1-1h11a1,1,0,0,1,1,1V161A5.67,5.67,0,0,1,186.61,166.7Zm-5.31-11V161A3.67,3.67,0,0,0,185,164.7h1.65a3.67,3.67,0,0,0,3.66-3.67v-5.34Z"
              fill="#093f68"></path>
        <path d="M165.08,126.1c0,5.09-4.77,9.21-10.66,9.21s-10.66-6.79-10.66-11.88,4.77-6.55,10.66-6.55S165.08,121,165.08,126.1Z"
              fill="#ffc9b0"></path>
        <path d="M154.42,136.31c-6.28,0-11.66-7.08-11.66-12.88,0-5,3.92-7.55,11.66-7.55,6.43,0,11.66,4.59,11.66,10.22S160.85,136.31,154.42,136.31Zm0-18.43c-9.66,0-9.66,4.18-9.66,5.55,0,4.8,4.55,10.88,9.66,10.88,5.33,0,9.66-3.68,9.66-8.21S159.75,117.88,154.42,117.88Z"
              fill="#093f68"></path>
        <path d="M227.25,123.43c0,5.09-4.78,11.88-10.67,11.88s-10.66-4.12-10.66-9.21,4.77-9.22,10.66-9.22S227.25,118.34,227.25,123.43Z"
              fill="#ffc9b0"></path>
        <path d="M216.58,136.31c-6.43,0-11.66-4.58-11.66-10.21s5.23-10.22,11.66-10.22c7.74,0,11.67,2.54,11.67,7.55C228.25,129.23,222.86,136.31,216.58,136.31Zm0-18.43c-5.33,0-9.66,3.69-9.66,8.22s4.33,8.21,9.66,8.21c5.12,0,9.67-6.08,9.67-10.88C226.25,122.06,226.25,117.88,216.58,117.88Z"
              fill="#093f68"></path>
        <path d="M185.78,156.13h0a32.2,32.2,0,0,1-32.15-32.25V109c0-7.75,11.79-22.23,19.52-22.23,0,0,1.26,7.33,13.41,13.75,8.5,4.48,20.48,4.78,31.38-2.82v26.23A32.2,32.2,0,0,1,185.78,156.13Z"
              fill="#ffc9b0"></path>
        <path d="M185.78,157.13a33.23,33.23,0,0,1-33.15-33.25V109c0-8.2,12.06-23.23,20.52-23.23a1,1,0,0,1,1,.83c0,.07,1.4,7,12.88,13,7.27,3.84,19,5.12,30.35-2.75a1,1,0,0,1,1-.07,1,1,0,0,1,.53.89v26.23A33.24,33.24,0,0,1,185.78,157.13ZM172.41,87.78c-6.41.93-17.78,13.16-17.78,21.17v14.93a31.23,31.23,0,0,0,31.15,31.25h0a31.24,31.24,0,0,0,31.16-31.25V99.51c-11.55,7.22-23.4,5.77-30.85,1.84C176,96,173.14,90,172.41,87.78Z"
              fill="#093f68"></path>
        <path d="M162.78,112.07a2,2,0,0,1,0-4l14.19-.18h0a2,2,0,0,1,0,4l-14.2.18Z" fill="#093f68"></path>
        <path d="M210.09,111.81h0l-14.2-.09a2,2,0,0,1,0-4h0l14.2.09a2,2,0,0,1,0,4Z" fill="#093f68"></path>
        <path d="M198.85,136.82H175.14s2.21,11.16,11.18,10.6C199.18,146.62,198.85,136.82,198.85,136.82Z"
              fill="#fff"></path>
        <path d="M185.67,148.45c-9.14,0-11.49-11.31-11.51-11.43a1,1,0,0,1,.2-.83,1,1,0,0,1,.78-.36h23.71a1,1,0,0,1,1,1c0,.11.2,10.78-13.47,11.63Zm-9.24-10.62c.82,2.71,3.42,9,9.83,8.6,9.53-.6,11.23-6.28,11.53-8.6Z"
              fill="#093f68"></path>
        <path d="M202.1,160.19s-21.14,49.3-43.17,59.29l1,4.43s12,1.31,31.33-30.4c16.58-27.22,15.35-29.38,15.35-29.38Z"
              fill="#ffbc0e"></path>
        <path d="M160.14,224.92a1.59,1.59,0,0,1-.31,0,1,1,0,0,1-.87-.77l-1-4.43a1,1,0,0,1,.56-1.13c21.43-9.71,42.46-58.28,42.67-58.77a1,1,0,0,1,.7-.58,1,1,0,0,1,.88.22l4.52,3.93a1.71,1.71,0,0,1,.21.26c1.25,2.21-7.66,17.75-15.36,30.4C174.18,223.51,162.25,224.92,160.14,224.92Zm-.06-4.88.64,2.83c2.76-.37,13.67-3.54,29.7-29.87,13.16-21.63,15-27.19,15.19-28.43l-3.14-2.73a258.82,258.82,0,0,1-12.83,24.76C179.14,204.31,169.2,215.56,160.08,220Zm45.56-55.76Z"
              fill="#093f68"></path>
        <path d="M173.22,173.07l2.66,19.78c0,4.08,3.31,8.29,7.4,8.29h18.07v16.15H171.59a15.1,15.1,0,0,1-15.11-15.1l-2.65-27.72"
              fill="#68e1fd"></path>
        <path d="M201.35,218.29H171.59a16.12,16.12,0,0,1-16.11-16.1l-2.65-27.63a1,1,0,0,1,.9-1.09,1,1,0,0,1,1.09.9l2.66,27.72a14.14,14.14,0,0,0,14.11,14.2h28.76V202.14H183.28c-4.78,0-8.36-4.85-8.4-9.22l-2.65-19.72a1,1,0,1,1,2-.26l2.66,19.77a.66.66,0,0,1,0,.14c0,3.37,2.79,7.29,6.4,7.29h18.07a1,1,0,0,1,1,1v16.15A1,1,0,0,1,201.35,218.29Z"
              fill="#093f68"></path>
        <path d="M203,199.72a1,1,0,0,1-.57-.18,1,1,0,0,1-.25-1.4c.07-.09,6.68-9.71,1.36-19.11a1,1,0,0,1,.37-1.36,1,1,0,0,1,1.37.37c6,10.52-1.15,20.82-1.46,21.25A1,1,0,0,1,203,199.72Z"
              fill="#093f68"></path>
        <path d="M189.73,133a19.17,19.17,0,0,1-2.91-.24,1,1,0,0,1,.35-2,13.77,13.77,0,0,0,4.33.06c.14-.91-1-4.05-2.5-7a1,1,0,0,1,1.77-.92c1,2,3.39,6.91,2.52,8.84a1.66,1.66,0,0,1-1.12,1A10.42,10.42,0,0,1,189.73,133Z"
              fill="#093f68"></path>
        <ellipse cx="206.76" cy="123.43" rx="2.84" ry="2.84" fill="#093f68"></ellipse>
        <ellipse cx="177.59" cy="123.43" rx="2.84" ry="2.84" fill="#093f68"></ellipse>
        <path d="M204.07,131.54a10.11,10.11,0,1,1,10.11-10.11A10.13,10.13,0,0,1,204.07,131.54Zm0-18.22a8.11,8.11,0,1,0,8.11,8.11A8.12,8.12,0,0,0,204.07,113.32Z"
              fill="#093f68"></path>
        <path d="M177,131.54a10.11,10.11,0,1,1,10.11-10.11A10.12,10.12,0,0,1,177,131.54Zm0-18.22a8.11,8.11,0,1,0,8.11,8.11A8.12,8.12,0,0,0,177,113.32Z"
              fill="#093f68"></path>
        <path d="M195,122.43h-8.87a1,1,0,1,1,0-2H195a1,1,0,0,1,0,2Z" fill="#093f68"></path>
        <path d="M213.06,121a1,1,0,0,1-.78-.37,1,1,0,0,1,.15-1.41l5-4a1,1,0,1,1,1.26,1.55l-5,4A1,1,0,0,1,213.06,121Z"
              fill="#093f68"></path>
        <path d="M167.87,122.43a1.13,1.13,0,0,1-.32-.05l-13.45-4.55a1,1,0,1,1,.64-1.89l13.45,4.54a1,1,0,0,1,.63,1.27A1,1,0,0,1,167.87,122.43Z"
              fill="#093f68"></path>
        <polygon points="208.56 222.31 218.11 169.93 239.06 175.98 226 227.57 208.56 222.31" fill="#fff"></polygon>
        <path d="M226,228.57a.9.9,0,0,1-.28,0l-17.45-5.27a1,1,0,0,1-.7-1.13l9.56-52.38a1,1,0,0,1,.46-.67,1,1,0,0,1,.8-.11L239.33,175a1,1,0,0,1,.7,1.21L227,227.82a1,1,0,0,1-1,.75Zm-16.3-7,15.59,4.7,12.56-49.63L218.9,171.2Z"
              fill="#093f68"></path>
        <polygon points="239.06 175.98 253.29 169.26 239.65 220.21 226 227.57 239.06 175.98" fill="#fff"></polygon>
        <path d="M226,228.57a1,1,0,0,1-.61-.21,1,1,0,0,1-.35-1l13.05-51.59a1,1,0,0,1,.54-.66l14.24-6.73a1,1,0,0,1,1.39,1.17l-13.65,50.95a1,1,0,0,1-.49.62l-13.64,7.36A1,1,0,0,1,226,228.57Zm13.91-51.88-12.38,48.92,11.26-6.07,13-48.46Z"
              fill="#093f68"></path>
        <path d="M201.6,202.72s6.19-5.79,10.44-6.8,9.3-1.26,10.43,1,3.66,12.11,0,14.13-20.87,5.49-20.87,5.49Z"
              fill="#ffc9b0"></path>
        <path d="M201.6,217.55a1,1,0,0,1-.64-.23,1,1,0,0,1-.36-.77V202.72a1,1,0,0,1,.32-.73c.26-.24,6.44-6,10.89-7,2.26-.54,9.79-2,11.55,1.54,1,2,4.22,12.9-.41,15.44-3.75,2.07-20.45,5.45-21.16,5.6Zm1-14.39v12.16c6.18-1.28,16.77-3.7,19.39-5.14s.81-10.33-.42-12.8c-.69-1.4-4.6-1.6-9.3-.48C208.85,197.71,203.89,202,202.6,203.16Z"
              fill="#093f68"></path>
        <polygon points="253.29 169.26 265.16 177.5 250.92 227.57 239.65 220.21 253.29 169.26" fill="#fff"></polygon>
        <path d="M250.92,228.57a1,1,0,0,1-.55-.16l-11.27-7.36a1,1,0,0,1-.42-1.1L252.33,169a1,1,0,0,1,.62-.68,1,1,0,0,1,.91.12l11.87,8.24a1,1,0,0,1,.39,1.09l-14.24,50.08a1,1,0,0,1-.61.66A1,1,0,0,1,250.92,228.57Zm-10.12-8.8,9.53,6.22L264,177.91l-10.11-7Z"
              fill="#093f68"></path>
        <polygon points="265.16 177.5 279.67 172.03 266.35 219.95 250.92 227.57 265.16 177.5" fill="#fff"></polygon>
        <path d="M250.92,228.57a1,1,0,0,1-.64-.23,1,1,0,0,1-.32-1l14.23-50.08a1,1,0,0,1,.61-.66l14.51-5.46a1,1,0,0,1,1,.2,1,1,0,0,1,.29,1l-13.31,47.92a1,1,0,0,1-.53.62l-15.43,7.63A1,1,0,0,1,250.92,228.57ZM266,178.25,252.5,225.68l13-6.43,12.66-45.59Z"
              fill="#093f68"></path>
        <path d="M267,200.34c-.85,2.08-1.79,6.3.48,7.79a4.2,4.2,0,0,0,4.15.07,6.32,6.32,0,0,0,2.79-3.23,17.81,17.81,0,0,0,1.39-7.78c-.17-2.93-.88-4.77-3.92-2.78A13.06,13.06,0,0,0,267,200.34Z"
              fill="#ffc9b0"></path>
        <path d="M269.53,209.71a4.8,4.8,0,0,1-2.63-.75c-2.82-1.85-1.86-6.53-.86-9h0a14.1,14.1,0,0,1,5.27-6.38c1.53-1,2.74-1.24,3.71-.75,1.37.69,1.66,2.57,1.76,4.31a19,19,0,0,1-1.46,8.22,7.38,7.38,0,0,1-3.25,3.73A5.47,5.47,0,0,1,269.53,209.71Zm-1.63-9c-.81,2-1.5,5.53.1,6.58a3.21,3.21,0,0,0,3.14,0,5.31,5.31,0,0,0,2.33-2.73,17,17,0,0,0,1.31-7.34c-.12-2.2-.54-2.58-.66-2.64s-.45-.19-1.71.64a12,12,0,0,0-4.51,5.46Z"
              fill="#093f68"></path>
        <path d="M138.41,219.48c-1.51,1.4-13.12,19.57-10.59,22.59s31.11,1.26,31.11,1.26,4.57-22.21,3.82-23.85S139.92,218.07,138.41,219.48Z"
              fill="#f56132"></path>
        <path d="M142.92,244.88c-7.34,0-14.46-.47-15.87-2.17-3.27-3.92,9.34-22.72,10.68-24h0c1.87-1.74,19.54-1.67,23.84-.81.9.18,1.78.44,2.09,1.13.77,1.69-2,16.06-3.75,24.48a1,1,0,0,1-.92.79C155.82,244.53,149.28,244.88,142.92,244.88Zm-3.86-24.64c-2.09,2-12.2,19.13-10.48,21.19,1.34,1.6,16.2,1.73,29.52.95,2-9.75,3.84-20.27,3.74-22.34C159.15,219,141.14,219.11,139.06,220.24Zm23-.1Zm-23.62-.66h0Z"
              fill="#093f68"></path>
        <path d="M140.83,230.68a19.75,19.75,0,0,1-8.57-1.64,1,1,0,0,1-.42-1.34,1,1,0,0,1,1.35-.43s5,2.5,13.26.83,15.5-9.23,15.57-9.31a1,1,0,0,1,1.42,0,1,1,0,0,1,0,1.41c-.31.33-7.68,8.09-16.63,9.9A30.51,30.51,0,0,1,140.83,230.68Z"
              fill="#093f68"></path>
        <circle cx="142.29" cy="223.75" r="1.73" fill="#ffbc0e"></circle>
        <path d="M142.29,226.49a2.74,2.74,0,1,1,2.73-2.74A2.74,2.74,0,0,1,142.29,226.49Zm0-3.47a.74.74,0,1,0,.73.73A.74.74,0,0,0,142.29,223Z"
              fill="#093f68"></path>
    </g>
</svg>