<svg
   xmlns:dc="http://purl.org/dc/elements/1.1/"
   xmlns:cc="http://creativecommons.org/ns#"
   xmlns:rdf="http://www.w3.org/1999/02/22-rdf-syntax-ns#"
   xmlns:svg="http://www.w3.org/2000/svg"
   xmlns="http://www.w3.org/2000/svg"
   xmlns:sodipodi="http://sodipodi.sourceforge.net/DTD/sodipodi-0.dtd"
   xmlns:inkscape="http://www.inkscape.org/namespaces/inkscape"
   width="150"
   height="49"
   viewBox="0 0 200 65"
   version="1.1"
   id="svg8"
   inkscape:version="1.0.2 (e86c8708, 2021-01-15)"
   sodipodi:docname="pat-logo.svg">
  <defs
     id="defs2">
    <clipPath
       id="__id7_s3iym21qky">
      <path
         d="M 0 0 L 465.070312 0 L 465.070312 465.019531 L 0 465.019531 Z M 0 0"
         id="path10" />
    </clipPath>
  </defs>
  <sodipodi:namedview
     id="base"
     pagecolor="#ffffff"
     bordercolor="#666666"
     borderopacity="1.0"
     inkscape:pageopacity="0.0"
     inkscape:pageshadow="2"
     inkscape:zoom="2.8"
     inkscape:cx="173.59013"
     inkscape:cy="51.876146"
     inkscape:document-units="mm"
     inkscape:current-layer="g32"
     inkscape:document-rotation="0"
     showgrid="false"
     inkscape:window-width="1920"
     inkscape:window-height="1036"
     inkscape:window-x="0"
     inkscape:window-y="22"
     inkscape:window-maximized="1" />
  <metadata
     id="metadata5">
    <rdf:RDF>
      <cc:Work
         rdf:about="">
        <dc:format>image/svg+xml</dc:format>
        <dc:type
           rdf:resource="http://purl.org/dc/dcmitype/StillImage" />
        <dc:title />
      </cc:Work>
    </rdf:RDF>
  </metadata>
  <g
     inkscape:label="Livello 1"
     inkscape:groupmode="layer"
     id="layer1">
    <g
       style="fill:#000000"
       id="g32"
       transform="matrix(0.26458333,0,0,0.26458333,27.851677,27.201967)">
      <g
         id="g868">
        <rect
           style="fill:#fffffe;fill-opacity:1;stroke:none;stroke-width:7.688"
           id="pat_logo_bg"
           width="755.90552"
           height="245.6693"
           x="-102.64526"
           y="-101.38203"
           ry="43.194603" />
        <g
           id="g870">
          <path
             d="M 82.291183,47.212509 51.966208,33.622136 h -0.972516 l -0.07459,0.07458 L 34.557426,50.131519 -8.1967562,15.501146 h -0.03659 l -0.112604,-0.07458 h -1.123149 L -36.013662,45.415182 -58.663802,33.173165 h -0.935951 l -0.07459,0.07459 h -0.07458 l -19.055485,17.819724 c -3.511305,-9.478016 -5.298385,-19.505912 -5.279375,-29.612774 -0.004,-4.008519 0.27054,-8.011196 0.82334,-11.9802335 l 33.507234,-18.8317303 13.441207,8.75996884 0.261772,0.1126048 h 0.261779 c 0.190115,-0.00729 0.372918,-0.07312 0.523551,-0.1871913 L 3.9341072,-28.937752 46.388488,2.1740112 c 0.172568,0.128698 0.38316,0.1945033 0.599598,0.1871913 h 0.223755 L 70.423549,-4.0413178 84.83727,5.8052299 C 87.390675,19.594496 86.517604,33.802014 82.291177,47.174486 Z m -3.256836,8.610794 -6.926071,-5.691782 -14.526332,-11.94221 21.078021,9.43414 3.069643,1.384926 c -0.823347,2.284315 -1.721281,4.568629 -2.695261,6.814926 z M 70.161781,71.284128 55.335653,53.313775 c -0.149168,-0.184268 -0.362684,-0.30419 -0.598139,-0.33636 L 36.654551,50.769141 51.629848,35.717799 68.66425,49.720579 78.211,57.582607 c -2.250684,4.807014 -4.945945,9.394659 -8.049219,13.701521 z M 48.147804,92.436736 32.199987,65.406618 l -0.07605,-0.11261 -34.55433,-42.716155 36.464266,29.612773 0.187192,0.112605 h 0.038 l 0.22375,0.07459 19.618518,2.358902 14.89925,18.04494 C 63.207896,80.462343 56.157514,87.109095 48.147782,92.436736 Z M 1.088219,106.6267 C -23.211537,106.6229 -46.35451,96.24198 -62.518765,78.099053 L -27.813807,39.050679 -8.7948912,17.672858 30.626414,66.417157 46.575685,93.448732 C 32.970692,102.0683 17.193978,106.6384 1.088219,106.6267 Z m -73.416972,-42.005412 13.664955,-29.352453 21.377821,11.60585 -26.468542,29.801424 c -3.199801,-3.764299 -6.069089,-7.797681 -8.574234,-12.054821 z m 8.387042,-24.859866 1.946497,-1.833891 -11.493248,24.709239 c -1.724211,-3.132526 -3.250988,-6.371814 -4.567174,-9.697378 z M 1.088219,-63.717291 c 40.05892,0 74.689293,27.966071 83.187483,66.8638234 l -13.17797,-9.0217432 c -0.232521,-0.152092 -0.520627,-0.194503 -0.786784,-0.11261 L 47.137259,0.41470744 4.5322452,-30.771639 4.2704732,-30.922271 h -0.299802 l -0.410941,0.112609 -0.11261,0.07458 -39.2735882,28.2293105 -13.36516,-8.7234005 -0.22375,-0.11261 h -0.263237 c -0.16818,-0.0073 -0.337825,0.03217 -0.485528,0.11261 l -32.7219,18.3447402 C -75.996534,-33.392322 -40.24301,-63.717294 1.088219,-63.717294 Z M 86.596579,5.0564637 C 78.772574,-35.863825 42.831863,-65.589204 1.088219,-65.589204 c -43.169502,0.0031 -79.813647,31.644087 -86.107952,74.351473 -0.61715,4.203023 -0.93011,8.444073 -0.93596,12.692435 -0.0146,21.054626 7.6222,41.398504 21.488973,57.242487 C -32.854805,114.91575 22.131149,118.6508 58.349721,87.04036 81.676962,66.680394 92.431678,35.463338 86.596579,5.0564637"
             style="fill:#003460;fill-opacity:1;stroke:#000000;stroke-width:3.74746;stroke-miterlimit:4;stroke-dasharray:none;stroke-opacity:1"
             id="pat_logo_icon" />
          <text
             xml:space="preserve"
             style="font-style:normal;font-weight:normal;font-size:107.507px;line-height:1.25;font-family:sans-serif;fill:#000000;fill-opacity:1;stroke:none;stroke-width:2.91312"
             x="124.55569"
             y="59.402596"
             id="pat_logo_text"><tspan
               sodipodi:role="line"
               id="tspan857"
               x="124.55569"
               y="59.402596"
               style="font-style:normal;font-variant:normal;font-weight:bold;font-stretch:normal;font-size:107.507px;font-family:Assistant;-inkscape-font-specification:'Assistant Bold';stroke-width:2.91312"><tspan
   style="font-style:normal;font-variant:normal;font-weight:bold;font-stretch:normal;font-size:107.507px;font-family:Assistant;-inkscape-font-specification:'Assistant Bold';fill:#545454;fill-opacity:1;stroke-width:2.91312"
   id="tspan861">Pick</tspan> <tspan
   style="font-style:normal;font-variant:normal;font-weight:bold;font-stretch:normal;font-size:107.507px;font-family:Assistant;-inkscape-font-specification:'Assistant Bold';fill:#f87e32;fill-opacity:1;stroke-width:2.91312"
   id="tspan865">a</tspan> <tspan
   style="font-style:normal;font-variant:normal;font-weight:bold;font-stretch:normal;font-size:107.507px;font-family:Assistant;-inkscape-font-specification:'Assistant Bold';fill:#545454;fill-opacity:1;stroke-width:2.91312"
   id="tspan863">Trek</tspan></tspan></text>
        </g>
      </g>
    </g>
  </g>
</svg>
