<svg xmlns="http://www.w3.org/2000/svg" xmlns:xlink="http://www.w3.org/1999/xlink" preserveAspectRatio="xMidYMid meet" version="1.0" viewBox="0.0 0.0 465.1 465.0" zoomAndPan="magnify" style="fill: rgb(0, 0, 0);"><defs><clipPath id="__id7_s3iym21qky"><path d="M 0 0 L 465.070312 0 L 465.070312 465.019531 L 0 465.019531 Z M 0 0"/></clipPath></defs><g><g clip-path="url(#__id7_s3iym21qky)" id="__id8_s3iym21qky"><path d="M 449.398438 301.300781 L 368.398438 265 L 365.800781 265 L 365.601562 265.199219 L 321.898438 309.097656 L 207.699219 216.597656 L 207.601562 216.597656 L 207.300781 216.398438 L 204.300781 216.398438 L 133.398438 296.5 L 72.898438 263.800781 L 70.398438 263.800781 L 70.199219 264 L 70 264 L 19.101562 311.597656 C 9.722656 286.28125 4.949219 259.496094 5 232.5 C 4.988281 221.792969 5.722656 211.101562 7.199219 200.5 L 96.699219 150.199219 L 132.601562 173.597656 L 133.300781 173.898438 L 134 173.898438 C 134.507812 173.878906 134.996094 173.703125 135.398438 173.398438 L 240.101562 97.898438 L 353.5 181 C 353.960938 181.34375 354.523438 181.519531 355.101562 181.5 L 355.699219 181.5 L 417.699219 164.398438 L 456.199219 190.699219 C 463.019531 227.53125 460.6875 265.480469 449.398438 301.199219 Z M 440.699219 324.300781 L 422.199219 309.097656 L 383.398438 277.199219 L 439.699219 302.398438 L 447.898438 306.097656 C 445.699219 312.199219 443.300781 318.300781 440.699219 324.300781 Z M 417 365.597656 L 377.398438 317.597656 C 377 317.105469 376.429688 316.785156 375.800781 316.699219 L 327.5 310.800781 L 367.5 270.597656 L 413 308 L 438.5 329 C 432.488281 341.839844 425.289062 354.09375 417 365.597656 Z M 358.199219 422.097656 L 315.601562 349.898438 L 315.398438 349.597656 L 223.101562 235.5 L 320.5 314.597656 L 321 314.898438 L 321.101562 314.898438 L 321.699219 315.097656 L 374.101562 321.398438 L 413.898438 369.597656 C 398.425781 390.113281 379.59375 407.867188 358.199219 422.097656 Z M 232.5 460 C 167.59375 459.988281 105.777344 432.261719 62.601562 383.800781 L 155.300781 279.5 L 206.101562 222.398438 L 311.398438 352.597656 L 354 424.800781 C 317.660156 447.824219 275.519531 460.03125 232.5 460 Z M 36.398438 347.800781 L 72.898438 269.398438 L 130 300.398438 L 59.300781 380 C 50.753906 369.945312 43.089844 359.171875 36.398438 347.800781 Z M 58.800781 281.398438 L 64 276.5 L 33.300781 342.5 C 28.695312 334.132812 24.617188 325.480469 21.101562 316.597656 Z M 232.5 5 C 339.5 5 432 79.699219 454.699219 183.597656 L 419.5 159.5 C 418.878906 159.09375 418.109375 158.980469 417.398438 159.199219 L 355.5 176.300781 L 241.699219 93 L 241 92.597656 L 240.199219 92.597656 L 239.101562 92.898438 L 238.800781 93.097656 L 133.898438 168.5 L 98.199219 145.199219 L 97.601562 144.898438 L 96.898438 144.898438 C 96.449219 144.878906 95.996094 144.984375 95.601562 145.199219 L 8.199219 194.199219 C 26.601562 86 122.101562 5 232.5 5 Z M 460.898438 188.699219 C 440 79.398438 344 0 232.5 0 C 117.191406 0.0078125 19.3125 84.523438 2.5 198.597656 C 0.851562 209.824219 0.015625 221.152344 0 232.5 C -0.0390625 288.738281 20.359375 343.078125 57.398438 385.398438 C 141.835938 482.140625 288.707031 492.117188 385.449219 407.683594 C 447.757812 353.300781 476.484375 269.917969 460.898438 188.699219" style="fill: rgb(0, 0, 0);"/></g></g></svg>