<svg id="svg_antonio"  viewBox="0 0 400 300" width="240" height="180" data-name="#50_hiking_outline" xmlns="http://www.w3.org/2000/svg"
      class="styles_illustrationTablet__1DWOa">
    <path d="M222.48,84.22c-.86-.58-2.12,2-2.12,2a6.94,6.94,0,0,0-1-1.41c-.45-.4-2.19,1.49-2.84,2.36s-1.94,5.26-1.94,5.26l-4.94,4.31c2.52,1.79,5,3.61,7.38,5.58l3.79-4.51s5.37-4.22,5.86-7.17S223.35,84.79,222.48,84.22Z"
          fill="#ffc9b0"></path>
    <path d="M217,103.27a1,1,0,0,1-.64-.23c-2.51-2.08-5.11-4-7.32-5.53a1,1,0,0,1-.08-1.57l4.72-4.12a27.1,27.1,0,0,1,2-5.3c.08-.1,2-2.67,3.34-2.81a1.23,1.23,0,0,1,1,.3,3,3,0,0,1,.3.31,3,3,0,0,1,1.46-1.14,1.55,1.55,0,0,1,1.24.2h0c.54.37,5.27,3.64,4.64,7.38-.53,3.12-5.28,7-6.15,7.72l-3.72,4.44A1,1,0,0,1,217,103.27Zm-5.77-6.66c1.76,1.26,3.71,2.7,5.64,4.26l3.16-3.76a.93.93,0,0,1,.14-.14c2-1.54,5.18-4.67,5.5-6.54s-2-4.14-3.52-5.2a6.08,6.08,0,0,0-.93,1.38,1,1,0,0,1-1.78,0,7.85,7.85,0,0,0-.44-.73,12,12,0,0,0-1.7,1.81,30.26,30.26,0,0,0-1.78,5,1,1,0,0,1-.31.47Zm10.66-11.56Z"
          fill="#093f68"></path>
    <path d="M251.68,142.08a1.52,1.52,0,0,1-1.29-.72L221.06,93.15a1.5,1.5,0,0,1,2.57-1.55L253,139.8a1.5,1.5,0,0,1-.51,2.06A1.46,1.46,0,0,1,251.68,142.08Z"
          fill="#093f68"></path>
    <path d="M217.88,86.53a1.5,1.5,0,0,1-1.28-.72L212,78.29a1.5,1.5,0,1,1,2.56-1.56l4.58,7.52a1.5,1.5,0,0,1-1.28,2.28Z"
          fill="#093f68"></path>
    <path d="M219.38,84.76s4.35,5.26,3.8,6.28-2.74,2.88-4.57-1.07" fill="#ffc9b0"></path>
    <path d="M221.18,93.38h-.09c-1.35,0-2.49-1-3.39-3a1,1,0,1,1,1.82-.84c.53,1.14,1.12,1.81,1.64,1.83a1.58,1.58,0,0,0,1.05-.67,25.34,25.34,0,0,0-3.6-5.32,1,1,0,0,1,.13-1.4,1,1,0,0,1,1.41.13c4.78,5.78,4.17,6.91,3.91,7.39A3.51,3.51,0,0,1,221.18,93.38Zm1-2.56h0Z"
          fill="#093f68"></path>
    <path d="M223.23,101.69a1.5,1.5,0,0,1-.89-2.71l5.23-3.85a1.5,1.5,0,0,1,1.77,2.42l-5.22,3.85A1.55,1.55,0,0,1,223.23,101.69Z"
          fill="#093f68"></path>
    <path d="M144.07,204.56l-2.92,25L161,218.38s-7.55-2-7.42-2.28,2.23-13.43,2.23-13.43" fill="#f56132"></path>
    <path d="M141.15,230.52a1,1,0,0,1-1-1.12l2.93-25a1,1,0,1,1,2,.23l-2.7,23,16-9c-5.4-1.49-5.51-1.74-5.7-2.18a1,1,0,0,1,0-.73c.17-.69,1.43-8.49,2.19-13.27a1,1,0,0,1,2,.31c-1.29,8.07-1.84,11.33-2.09,12.69,1.22.41,4,1.21,6.54,1.89a1,1,0,0,1,.23,1.84l-19.86,11.14A1.12,1.12,0,0,1,141.15,230.52Zm13.35-14h0Zm.09-.34a1.53,1.53,0,0,1-.09.33A1,1,0,0,0,154.59,216.2Z"
          fill="#093f68"></path>
    <path d="M177.24,186.59c-.26.51-5.86,27-5.86,27l20-9.38s-7.64-3.06-7.45-4.14c.43-2.4,2.4-9.78,2.4-9.78Z"
          fill="#f56132"></path>
    <path d="M171.38,214.62a1,1,0,0,1-.62-.21,1,1,0,0,1-.36-1c3.74-17.69,5.74-26.86,5.95-27.28a1,1,0,0,1,1.27-.48l9,3.73a1,1,0,0,1,.59,1.19c0,.07-1.81,6.76-2.32,9.38a35.62,35.62,0,0,0,6.77,3.35,1,1,0,0,1,0,1.84l-20,9.38A1,1,0,0,1,171.38,214.62ZM177.93,188c-.81,3.51-3.28,15.07-5.16,23.91l16.1-7.56c-6.26-2.71-6.08-3.73-6-4.37.34-2,1.66-7,2.19-9Z"
          fill="#093f68"></path>
    <path d="M211.18,93.91c-6.74,6.52-14.79,13.49-16.88,14.8-3.28.76-10.49-.35-21.07-2.1a6.38,6.38,0,1,0-2.1,12.59c10.2,1.7,22.19,3.92,28.27,1.24,4.72-2.09,13.18-11.75,18.73-19C216.21,99.09,213.17,96.15,211.18,93.91Z"
          fill="#68e1fd"></path>
    <path d="M191.55,122.68c-5.71,0-12.58-1.15-18.91-2.21l-1.67-.28a7.38,7.38,0,1,1,2.42-14.57c10,1.66,17.35,2.79,20.52,2.15,2.19-1.45,9.89-8.12,16.57-14.58a.91.91,0,0,1,.74-.28,1,1,0,0,1,.71.33c.84,1,1.86,2,2.94,3.14,1.43,1.49,2.91,3,4,4.38a1,1,0,0,1,0,1.24c-5.76,7.58-14.23,17.2-19.11,19.35A21,21,0,0,1,191.55,122.68Zm-19.37-15.16a5.38,5.38,0,0,0-.88,10.69l1.67.28c9.63,1.62,20.55,3.45,26,1,4.13-1.82,11.84-10.29,17.84-18.09-1-1.15-2.22-2.42-3.41-3.66-.82-.85-1.6-1.66-2.3-2.43-6.3,6-14,12.81-16.3,14.22a1.14,1.14,0,0,1-.3.13c-3.46.8-10.42-.26-21.47-2.1A5.22,5.22,0,0,0,172.18,107.52Z"
          fill="#093f68"></path>
    <rect x="134.02" y="102.18" width="28.59" height="46.81" transform="translate(290.57 257.99) rotate(-177.31)"
          fill="#f56132"></rect>
    <path d="M161.5,150.63h-.05l-28.56-1.34a1,1,0,0,1-.95-1l2.2-46.76a1,1,0,0,1,1.05-1l28.55,1.35a1,1,0,0,1,.7.32,1.07,1.07,0,0,1,.26.72l-2.2,46.76A1,1,0,0,1,161.5,150.63ZM134,147.34l26.55,1.25,2.11-44.76-26.56-1.25Z"
          fill="#093f68"></path>
    <rect x="128.31" y="101.51" width="11.46" height="46.81" rx="5.73" transform="translate(6.02 -6.16) rotate(2.69)"
          fill="#f56132"></rect>
    <path d="M133.22,149.3h-.33a6.72,6.72,0,0,1-6.4-7l1.66-35.31a6.65,6.65,0,0,1,2.19-4.66,6.72,6.72,0,0,1,11.25,5.29l-1.66,35.31a6.74,6.74,0,0,1-6.71,6.42Zm1.64-46.78a4.74,4.74,0,0,0-4.71,4.51l-1.66,35.32a4.72,4.72,0,0,0,4.5,4.94h0a4.6,4.6,0,0,0,3.4-1.23,4.71,4.71,0,0,0,1.54-3.27l1.66-35.32a4.73,4.73,0,0,0-4.5-4.94Z"
          fill="#093f68"></path>
    <rect x="139.27" y="90.88" width="28.59" height="11.75" transform="translate(302.41 200.62) rotate(-177.31)"
          fill="#ffbc0e"></rect>
    <path d="M167.57,104.3h0L139,103a1,1,0,0,1-1-1l.55-11.74a1,1,0,0,1,1.05-1l28.56,1.34a1,1,0,0,1,1,1l-.56,11.73A1,1,0,0,1,167.57,104.3ZM140.05,101l26.56,1.25.46-9.74-26.56-1.25Z"
          fill="#093f68"></path>
    <rect x="133.56" y="90.21" width="11.46" height="11.75" rx="5.73" transform="translate(4.67 -6.44) rotate(2.69)"
          fill="#ffbc0e"></rect>
    <path d="M139.29,103H139a6.73,6.73,0,0,1-6.4-7v-.3a6.73,6.73,0,0,1,13.44.63v.3a6.72,6.72,0,0,1-6.71,6.41Zm0-11.75a4.72,4.72,0,0,0-4.72,4.51l0,.29a4.73,4.73,0,0,0,4.5,4.94h0a4.65,4.65,0,0,0,3.41-1.22A4.73,4.73,0,0,0,144,96.45v-.29a4.72,4.72,0,0,0-4.5-4.94Z"
          fill="#093f68"></path>
    <path d="M208.29,197.65a1.51,1.51,0,0,1-1.5-1.4l-5.17-71.81a1.5,1.5,0,1,1,3-.22L209.79,196a1.49,1.49,0,0,1-1.39,1.6Z"
          fill="#093f68"></path>
    <path d="M187.58,196.15l-14.07-1.33c0,.3,5-23.06,5.15-28.31-4.81-4.56-21.61-14.22-26.48-15.95a6.31,6.31,0,0,0,1,.25l2.59-15.33c3.13.53,16.57,7.28,20.1,9.14,16.74,8.86,18.32,14.16,19.27,18.92C196.66,171.26,190.63,186.59,187.58,196.15Z"
          fill="#093f68"></path>
    <polygon points="157.37 207.82 141.84 207.02 148.03 136.77 169.15 135.38 157.37 207.82" fill="#093f68"></polygon>
    <polygon points="291.64 156.36 291.64 243.84 108.36 243.84 291.64 156.36" fill="#093f68"></polygon>
    <path d="M291.64,244.85H108.36a1,1,0,0,1-.43-1.91l183.28-87.48a1,1,0,0,1,1,.06,1,1,0,0,1,.47.84v87.49A1,1,0,0,1,291.64,244.85Zm-178.86-2H290.64V158Z"
          fill="#093f68"></path>
    <path d="M155.24,105.37h17.35a7.84,7.84,0,0,1,7.84,7.84v33.1a0,0,0,0,1,0,0h-33a0,0,0,0,1,0,0V113.2A7.84,7.84,0,0,1,155.24,105.37Z"
          transform="translate(19.02 -21.5) rotate(7.97)" fill="#68e1fd"></path>
    <path d="M177.43,149.39h-.14l-32.7-4.58a1,1,0,0,1-.85-1.12l4.59-32.78a8.84,8.84,0,0,1,10-7.53l17.18,2.41a8.84,8.84,0,0,1,7.53,10l-4.59,32.78A1,1,0,0,1,177.43,149.39ZM145.86,143l30.72,4.3L181,115.48a6.83,6.83,0,0,0-5.82-7.72L158,105.35a6.84,6.84,0,0,0-7.72,5.83Z"
          fill="#093f68"></path>
    <path d="M181.09,123.8l-.21,0a1.51,1.51,0,0,1-1.3-1.53c-.07-1.84-2.07-13.75-9-15.84a1.5,1.5,0,0,1,.87-2.87c4,1.2,7.15,4.8,9.2,10.4a29.76,29.76,0,0,1,1.88,8.57A1.51,1.51,0,0,1,181.09,123.8Z"
          fill="#093f68"></path>
    <path d="M142.49,138.14a1.5,1.5,0,0,1-.07-3c3.88-.19,7-3.6,8.84-6.43,4.34-6.49,6.08-15.07,5.13-17.7a5.23,5.23,0,0,0-2.82-3.22c-3.33-1.5-8,.35-8.08.37a1.5,1.5,0,1,1-1.12-2.78c.24-.1,5.9-2.35,10.42-.34a8.21,8.21,0,0,1,4.42,5c1.5,4.15-1.1,13.87-5.45,20.37-3.27,4.89-7.14,7.57-11.2,7.76Z"
          fill="#093f68"></path>
    <path d="M168,59.66c3,0,7-.09,9.81,1.24,2.2,1.06,3.91,3.59,5,5.67A24.3,24.3,0,0,1,186,81c-.12,1-.06,2-.26,2.92-.28,1.3-.69,2.58-1.06,3.84-.19.68-2,7.66-2.26,7.64l-34.14-2.52c-1-.09.63-18.63,1-20.36a15.93,15.93,0,0,1,3.94-8c3.44-3.51,8.66-4.56,13.57-4.75Z"
          fill="#725858"></path>
    <path d="M182.6,96.36h-.25l-34.14-2.53a1.1,1.1,0,0,1-.81-.45c-.29-.39-.78-1-.11-10.61.34-4.8.81-9.58,1-10.49a16.94,16.94,0,0,1,4.21-8.53c3.07-3.15,7.73-4.8,14.25-5.05l1.25,0v1l.07-1c3,0,7.22-.08,10.17,1.34,2,.94,3.81,3,5.48,6.09a25.19,25.19,0,0,1,3.26,15c-.05.38-.06.76-.08,1.13a12.48,12.48,0,0,1-.19,1.88c-.23,1-.53,2.07-.82,3.06l-.25.85c0,.13-.13.46-.26.93C183.55,95.74,183.38,96.36,182.6,96.36ZM149,91.88l32.79,2.42c.44-1.34,1.34-4.68,1.67-5.9l.26-1,.26-.87c.28-.95.57-1.94.78-2.91a9.47,9.47,0,0,0,.15-1.55c0-.43,0-.86.1-1.29A23.29,23.29,0,0,0,182,67c-1.44-2.68-3-4.49-4.58-5.24-2.54-1.22-6.43-1.17-9.29-1.14H168l-1.2,0c-6,.23-10.19,1.69-12.89,4.45a14.93,14.93,0,0,0-3.68,7.53C149.9,74.39,148.66,88.81,149,91.88Zm.08.42h0ZM168,59.66v-1h0Z"
          fill="#093f68"></path>
    <path d="M165,108.37h6.35a0,0,0,0,1,0,0V112a2.7,2.7,0,0,1-2.7,2.7h-1A2.7,2.7,0,0,1,165,112v-3.65A0,0,0,0,1,165,108.37Z"
          transform="translate(8.69 -12.11) rotate(4.23)" fill="#ffc9b0"></path>
    <path d="M168.64,115.75h-.28l-1-.07a3.64,3.64,0,0,1-2.53-1.27,3.71,3.71,0,0,1-.89-2.69l.27-3.64a1,1,0,0,1,.35-.68,1,1,0,0,1,.72-.24l6.34.47a1,1,0,0,1,.68.34,1,1,0,0,1,.24.73l-.27,3.64a3.68,3.68,0,0,1-3.68,3.42Zm-.13-2a1.66,1.66,0,0,0,1.23-.41,1.69,1.69,0,0,0,.58-1.16l.2-2.64-4.34-.32-.19,2.64a1.69,1.69,0,0,0,1.56,1.82Z"
          fill="#093f68"></path>
    <ellipse cx="185.99" cy="93.81" rx="5.31" ry="4.76" transform="translate(78.7 272.36) rotate(-85.77)"
             fill="#ffc9b0"></ellipse>
    <path d="M185.92,100.12l-.4,0a5.49,5.49,0,0,1-4-2.18,6.78,6.78,0,0,1,.66-8.83,5.49,5.49,0,0,1,4.23-1.58,6.06,6.06,0,0,1,5.28,6.72,6.62,6.62,0,0,1-2,4.29A5.51,5.51,0,0,1,185.92,100.12Zm.14-10.62a3.56,3.56,0,0,0-2.46,1,4.77,4.77,0,0,0-.45,6.17,3.41,3.41,0,0,0,5.22.38,4.58,4.58,0,0,0,1.36-3h0a4.07,4.07,0,0,0-3.43-4.58Z"
          fill="#093f68"></path>
    <path d="M168.12,109.85c-10.41-.77-18.78-14.3-18-24.55l3.63,1.59,2.54-12.39s12.21.83,17.71,1.22c10.11.73,14.26-1.66,14.26-1.66l-1.37,18.53C186.11,102.83,178.53,110.62,168.12,109.85Z"
          fill="#ffc9b0"></path>
    <path d="M169.5,110.91c-.48,0-1,0-1.45-.06h0c-11-.81-19.73-15-19-25.62a1,1,0,0,1,.48-.78,1,1,0,0,1,.92-.06l2.5,1.09,2.29-11.18a1,1,0,0,1,1-.8s12.22.83,17.72,1.22c9.69.69,13.65-1.5,13.69-1.53a1,1,0,0,1,1,0,1,1,0,0,1,.47.93l-1.38,18.52a20.42,20.42,0,0,1-6.06,13.42A17.63,17.63,0,0,1,169.5,110.91Zm-1.31-2a15.8,15.8,0,0,0,12.23-4.23,18.48,18.48,0,0,0,5.45-12.11l1.25-16.93c-2.1.7-6.33,1.62-13.21,1.13l-16.84-1.17-2.36,11.54a1,1,0,0,1-.51.69,1.06,1.06,0,0,1-.87,0l-2.29-1c0,11.15,9.23,21.46,17.15,22Z"
          fill="#093f68"></path>
    <ellipse cx="163.41" cy="87.42" rx="1.72" ry="1.72" transform="translate(64.16 243.94) rotate(-85.77)"
             fill="#093f68"></ellipse>
    <circle cx="179.64" cy="89.15" r="1.72" fill="#093f68"></circle>
    <path d="M174.32,94.52a10.34,10.34,0,0,1-2.33-.3,1,1,0,0,1,.49-1.94,8,8,0,0,0,2,.24A15.82,15.82,0,0,0,173.34,89a1,1,0,0,1,1.84-.79c.82,1.91,1.67,4.42,1.06,5.56a1.39,1.39,0,0,1-1,.72A5.65,5.65,0,0,1,174.32,94.52Z"
          fill="#093f68"></path>
    <path d="M168.29,86a1.42,1.42,0,0,1-.29,0l-8.13-1.18a2,2,0,0,1,.57-4L168.57,82a2,2,0,0,1-.28,4Z"
          fill="#093f68"></path>
    <path d="M175.54,85.65a2,2,0,0,1-.11-4l8.2-.46a2,2,0,0,1,.22,4l-8.2.46Z" fill="#093f68"></path>
    <path d="M153.73,86.89s-4.29-3.47-7,.38-.9,10.92,6.74,9.47" fill="#ffc9b0"></path>
    <path d="M151.54,97.93a6.71,6.71,0,0,1-5.95-3,7.58,7.58,0,0,1,.29-8.28,4.94,4.94,0,0,1,3.41-2.19,7.54,7.54,0,0,1,5.07,1.61,1,1,0,0,1-1.25,1.56,5.59,5.59,0,0,0-3.56-1.19,3,3,0,0,0-2,1.37,5.61,5.61,0,0,0-.24,6c1.11,1.72,3.24,2.38,6,1.86a1,1,0,0,1,.37,2A11.13,11.13,0,0,1,151.54,97.93Z"
          fill="#093f68"></path>
    <path d="M171.84,102.51h0c-3.24-.11-9.51-2-10.08-8.52a1,1,0,0,1,.91-1.08,1,1,0,0,1,1.08.91c.56,6.33,7.85,6.68,8.16,6.7a1,1,0,0,1,0,2Z"
          fill="#093f68"></path>
    <path d="M193.6,134.24a136.61,136.61,0,0,1-22.28-5.12c-2.65-2.08-6.31-8.4-11.57-17.74a6.39,6.39,0,0,0-4.33-3.13,6.32,6.32,0,0,0-4.37.7,6.39,6.39,0,0,0-2.43,8.7c5.07,9,10.86,19.74,16.77,22.79,4.58,2.37,17.41,2.9,26.57,2.65C192.56,140.15,193.1,137.19,193.6,134.24Z"
          fill="#68e1fd"></path>
    <path d="M187.71,144.14c-8.76,0-18.72-.71-22.78-2.81-5.85-3-11.43-13-16.35-21.72l-.83-1.47a7.38,7.38,0,0,1,2.81-10.06,7.39,7.39,0,0,1,10.06,2.81c5.13,9.11,8.7,15.27,11.19,17.34a135.42,135.42,0,0,0,21.91,5,1,1,0,0,1,.68.4,1,1,0,0,1,.19.76c-.55,3.23-1.09,6.13-1.65,8.89a1,1,0,0,1-.95.8C190.62,144.12,189.18,144.14,187.71,144.14Zm-33.52-35a5.48,5.48,0,0,0-2.65.69,5.39,5.39,0,0,0-2,7.33l.83,1.48c4.78,8.52,10.21,18.17,15.53,20.92,4,2.08,15.44,2.78,25.29,2.56.44-2.21.87-4.52,1.3-7a138.67,138.67,0,0,1-21.45-5,1.18,1.18,0,0,1-.29-.16c-2.79-2.19-6.33-8.27-11.82-18a5.43,5.43,0,0,0-3.65-2.64A5.31,5.31,0,0,0,154.19,109.13Z"
          fill="#093f68"></path>
    <path d="M201.39,132.71s-.7-2.22-1.78-2.11-3.73,3.89-3.73,3.89l-2.28-.25s-1.6,8.36-1.64,8.85l3.62-.15s9.34,1.58,11.14.31,1.5-8.83.61-10.06S201.39,132.71,201.39,132.71Z"
          fill="#ffc9b0"></path>
    <path d="M203.52,144.74a53.76,53.76,0,0,1-8-.8c-.93.05-3.53.15-3.53.15a1,1,0,0,1-1-1.09c0-.5,1.27-7,1.65-8.95a1,1,0,0,1,1.08-.81l.8.09.91.1c1.29-1.78,2.94-3.7,4.1-3.83s2.11,1.12,2.53,2c1.93-.23,5.12-.37,6.1,1s1.12,5.55.67,8.23a4.77,4.77,0,0,1-1.51,3.23A7.42,7.42,0,0,1,203.52,144.74Zm-7.94-2.8h.17c4.31.73,9.52,1.1,10.39.48,1.16-.82,1.06-7.61.37-8.66-.4-.36-2.78-.4-5-.07a1,1,0,0,1-1.1-.69h0a3.69,3.69,0,0,0-.75-1.38,16.54,16.54,0,0,0-3,3.43,1,1,0,0,1-.91.42l-1.38-.15c-.43,2.27-1,5.14-1.26,6.71l2.38-.1Z"
          fill="#093f68"></path>
    <path d="M168.3,56.15h0c8.57,0,16.17,2,18.78,9.06l1.68,12H147.84l1.68-12C152.14,58.13,159.73,56.15,168.3,56.15Z"
          fill="#68e1fd"></path>
    <path d="M188.76,78.21H147.84a1,1,0,0,1-1-1.13l1.68-12a1.29,1.29,0,0,1,.05-.21c2.41-6.54,8.86-9.72,19.72-9.72s17.31,3.18,19.72,9.72a1.29,1.29,0,0,1,0,.21l1.68,12a1,1,0,0,1-1,1.13Zm-39.77-2h38.62l-1.5-10.75c-2.12-5.59-8-8.31-17.81-8.31s-15.69,2.72-17.81,8.31Z"
          fill="#093f68"></path>
    <rect x="145.82" y="73.77" width="44.74" height="6.01" rx="3" fill="#68e1fd"></rect>
    <path d="M187.56,80.78H148.82a4,4,0,0,1,0-8h38.74a4,4,0,0,1,0,8Zm-38.74-6a2,2,0,0,0,0,4h38.74a2,2,0,0,0,0-4Z"
          fill="#093f68"></path>
    <path d="M291.64,156.36v35.85c-.52.24-1.05.46-1.59.67-7.21,2.77-16.18,2.73-22.61-1.2-8.18,11.78-27.35,16.95-42,11.32-7.23,9.71-18.49,17.2-31.31,20.84-4.87,1.38-11,1.95-14.43-1.33-2.39,6.89-12.76,10.79-20.35,7.65a66.39,66.39,0,0,1-18.47,13.69H108.36Z"
          fill="#70cc40"></path>
    <path d="M140.87,244.85H108.36a1,1,0,0,1-.43-1.91l183.28-87.48a1,1,0,0,1,1,.06,1,1,0,0,1,.47.84v35.85a1,1,0,0,1-.58.91c-.53.25-1.09.47-1.65.69-7.64,2.94-16.43,2.61-22.69-.81-8.54,11.38-27.34,16.41-41.94,11.2-7.41,9.65-18.53,17-31.38,20.6-3.65,1-10.07,2.21-14.31-.68a14.62,14.62,0,0,1-7.19,6.47,18.09,18.09,0,0,1-13.29.74,67.11,67.11,0,0,1-18.29,13.41A1,1,0,0,1,140.87,244.85Zm-28.09-2h27.85a65,65,0,0,0,18-13.37,1,1,0,0,1,1.11-.25,15.91,15.91,0,0,0,12.36-.47,12,12,0,0,0,6.66-6.58,1,1,0,0,1,.71-.65,1,1,0,0,1,.93.26c3.55,3.42,10.6,1.9,13.47,1.09,12.7-3.61,23.63-10.88,30.77-20.47a1,1,0,0,1,1.16-.34c14.23,5.45,32.93.44,40.84-11a1,1,0,0,1,1.34-.28c5.79,3.53,14.31,4,21.73,1.12l.95-.39V158Z"
          fill="#093f68"></path>
    <circle cx="259.23" cy="84.76" r="13.43" fill="#fff"></circle>
    <path d="M259.23,99.19a14.43,14.43,0,1,1,14.43-14.43A14.46,14.46,0,0,1,259.23,99.19Zm0-26.86a12.43,12.43,0,1,0,12.43,12.43A12.44,12.44,0,0,0,259.23,72.33Z"
          fill="#093f68"></path>
    <path d="M199.88,148.62a1.5,1.5,0,0,1-.13-3l6.47-.56a1.5,1.5,0,1,1,.25,3l-6.46.55Z" fill="#093f68"></path>
    <path d="M158.14,73.77c.18-.58.24-7.47.89-11.2s4.38-5.6,4.38-5.6" fill="#68e1fd"></path>
    <path d="M158.14,74.77a1.55,1.55,0,0,1-.29,0,1,1,0,0,1-.68-1.22c.05-.25.1-1.36.15-2.44A83.52,83.52,0,0,1,158,62.4c.72-4.19,4.76-6.24,4.93-6.33a1,1,0,1,1,.89,1.79s-3.3,1.7-3.85,4.88a82.64,82.64,0,0,0-.69,8.42,17.91,17.91,0,0,1-.22,2.9A1,1,0,0,1,158.14,74.77Z"
          fill="#093f68"></path>
    <path d="M161.46,128.36a1,1,0,0,1-.84-.45l-3.32-5.07a1,1,0,0,1-.13-.76,1,1,0,0,1,.44-.63l5.78-3.62a1,1,0,0,1,1.06,1.7l-4.91,3.07,2.21,3.39,4.76-3a1,1,0,0,1,1.08,1.69l-5.6,3.56A1,1,0,0,1,161.46,128.36Z"
          fill="#093f68"></path>
</svg>