<svg id="svg_marta" viewBox="0 0 400 300" width="240" height="180" xmlns="http://www.w3.org/2000/svg" xmlns:svg="http://www.w3.org/2000/svg"
     xmlns:se="http://svg-edit.googlecode.com" class="styles_illustrationTablet__1DWOa">
    <g class="layer">
        <title>Layer 1</title>
        <g data-name="#76_hiking_outline" id="_76_hiking_outline">
            <path class="marta_mountain"
                  d="m134.405714,214.774286a1,1 0 0 1 -0.28,-2c0.57,-0.3 3.11,-2.19 6,-4.36c39.38,-29.23 49,-31.14 53.22,-29.15c10.25,4.83 27.47,25.37 28.2,26.24a1,1 0 0 1 -1.54,1.28c-0.18,-0.21 -17.66,-21.07 -27.52,-25.71c-7.44,-3.5 -39.21,20.07 -51.17,28.95c-6.14,4.62 -6.36,4.75 -6.91,4.75zm0,-2zm0,0l0,0z"
                  fill="#dfeaef" id="svg_1" transform="matrix(1 0 0 1 0 0)"/>
            <path class="marta_mountain"
                  d="m264.41,213.745714a1,1 0 0 1 -0.66,-0.25c-0.26,-0.22 -25.92,-22.73 -32.9,-25.83c-5.31,-2.35 -13.48,6.63 -16.18,10.28a1,1 0 0 1 -1.61,-1.18c0.44,-0.59 10.75,-14.41 18.6,-10.93c7.26,3.22 32.35,25.22 33.41,26.16a1,1 0 0 1 0.09,1.41a1,1 0 0 1 -0.75,0.34z"
                  fill="#dfeaef" id="svg_2" transform="matrix(1 0 0 1 0 0)"/>
            <path class="marta_mountain" d="m277.71,215.06l-155.42,0a1,1 0 0 1 0,-2l155.42,0a1,1 0 0 1 0,2z"
                  fill="#dfeaef" id="svg_3"/>
            <path d="m202.34,230.74a7.51,7.51 0 0 1 -7.29,-5.8l-11,-46.73a7.5,7.5 0 1 1 14.61,-3.42l9.66,48.78c0.94,4 -0.28,6 -4.31,7a7.83,7.83 0 0 1 -1.67,0.17z"
                  fill="#ffc9b0" id="svg_4"/>
            <path d="m202.34,231.74a8.47,8.47 0 0 1 -8.27,-6.57l-10.94,-46.74a8.5,8.5 0 1 1 16.55,-3.87l9.67,48.82c1.07,4.54 -0.49,7.06 -5.06,8.13a8.59,8.59 0 0 1 -1.95,0.23zm-10.92,-61.74a6.5,6.5 0 0 0 -6.34,8l10.92,46.72a6.47,6.47 0 0 0 6.32,5a6.26,6.26 0 0 0 1.49,-0.18c1.76,-0.41 2.88,-1 3.4,-1.87s0.58,-2.12 0.17,-3.89l-9.65,-48.78a6.52,6.52 0 0 0 -6.31,-5z"
                  fill="#093f68" id="svg_5"/>
            <path d="m159.12,229.23a7.51,7.51 0 0 1 -5.11,-2c-3,-2.82 -1,-4.18 1.07,-7.78c5.15,-9 7.1,-26.85 9.48,-43.27a7.5,7.5 0 1 1 14.84,2.15c-1.31,9.06 -6.25,39.35 -14.79,48.52a7.45,7.45 0 0 1 -5.49,2.38z"
                  fill="#ffc9b0" id="svg_6"/>
            <path d="m159.12,230.23a8.48,8.48 0 0 1 -5.79,-2.28c-3.06,-2.85 -1.75,-4.86 -0.24,-7.18c0.35,-0.55 0.74,-1.14 1.13,-1.82c4.41,-7.72 6.47,-22.46 8.47,-36.72q0.44,-3.12 0.88,-6.2a8.5,8.5 0 0 1 15.22,-3.87a8.39,8.39 0 0 1 1.6,6.3c-1.32,9.14 -6.31,39.68 -15,49.06a8.53,8.53 0 0 1 -6.27,2.71zm12.88,-59.49a6.5,6.5 0 0 0 -6.42,5.57q-0.45,3.08 -0.88,6.2c-2,14.44 -4.12,29.38 -8.72,37.43c-0.41,0.72 -0.81,1.35 -1.18,1.92c-1.5,2.3 -1.91,2.92 -0.08,4.63a6.51,6.51 0 0 0 9.19,-0.33c8.34,-9 13.23,-39 14.53,-48a6.48,6.48 0 0 0 -5.5,-7.36a7.43,7.43 0 0 0 -0.94,-0.06z"
                  fill="#093f68" id="svg_7"/>
            <path d="m241,126.41s0.38,6.82 -0.67,7.31s-3.92,0.69 -3,-3.58" fill="#ffc9b0" id="svg_8"/>
            <path d="m239.12,135a3.1,3.1 0 0 1 -1.9,-0.61c-1.06,-0.84 -1.38,-2.33 -0.95,-4.42a1,1 0 1 1 2,0.4c-0.25,1.24 -0.17,2.13 0.23,2.45a1.51,1.51 0 0 0 1.25,0.09a25.18,25.18 0 0 0 0.25,-6.42a1,1 0 0 1 0.95,-1a1,1 0 0 1 1.05,0.94c0.41,7.5 -0.75,8 -1.24,8.27a3.88,3.88 0 0 1 -1.64,0.3z"
                  fill="#093f68" id="svg_9"/>
            <path d="m228.93,128.9c-9.29,1.24 -19.91,2.07 -22.37,1.88c-3.09,-1.33 -8.23,-6.51 -15.7,-14.21a6.38,6.38 0 0 0 -9.17,8.88c7.2,7.43 15.52,16.34 22,17.79c5,1.13 17.57,-1.62 26.37,-4.19c-0.16,-2.99 -0.86,-7.16 -1.13,-10.15z"
                  fill="#8839a3" id="svg_10" transform="matrix(1 0 0 1 0 0)"/>
            <path d="m206.59,144.5a14.75,14.75 0 0 1 -3.11,-0.28c-6.43,-1.44 -14.35,-9.63 -21.33,-16.85l-1.15,-1.22a7.39,7.39 0 0 1 10.61,-10.28c7.27,7.5 12.29,12.56 15.22,13.92c2.63,0.14 12.78,-0.65 22,-1.88a1,1 0 0 1 1.13,0.9c0.11,1.26 0.3,2.72 0.5,4.27c0.27,2 0.54,4.17 0.64,5.92a1,1 0 0 1 -0.72,1c-7.67,2.24 -17.67,4.5 -23.79,4.5zm-20.31,-28.87l-0.34,0a5.38,5.38 0 0 0 -3.53,9.12l1.18,1.22c6.79,7 14.48,15 20.33,16.29c4.4,1 15.64,-1.25 25.1,-4c-0.12,-1.52 -0.35,-3.28 -0.57,-5c-0.15,-1.17 -0.3,-2.29 -0.41,-3.32c-8.66,1.12 -18.92,2 -21.56,1.76a1.16,1.16 0 0 1 -0.32,-0.08c-3.25,-1.41 -8.22,-6.39 -16,-14.44a5.37,5.37 0 0 0 -3.88,-1.55z"
                  fill="#093f68" id="svg_11"/>
            <polygon fill="#fff" id="svg_12"
                     points="247.4 117.72 236.35 106.54 224.63 139.58 244.6 123.76 247.4 117.72"/>
            <path d="m224.63,140.58a1,1 0 0 1 -0.58,-0.18a1,1 0 0 1 -0.36,-1.15l11.71,-33a1,1 0 0 1 1.66,-0.37l11.05,11.12a1,1 0 0 1 0.19,1.13l-2.79,6a1.12,1.12 0 0 1 -0.29,0.36l-20,15.83a1,1 0 0 1 -0.59,0.26zm12.13,-32.2l-10,28.26l17,-13.52l2.41,-5.19l-9.41,-9.55z"
                  fill="#093f68" id="svg_13"/>
            <polygon fill="#dfeaef" id="svg_14" points="228.89 118.27 247.4 117.72 231.6 156.7 228.89 118.27"/>
            <path d="m231.61,157.7l-0.16,0a1,1 0 0 1 -0.84,-0.92l-2.72,-38.43a1,1 0 0 1 0.25,-0.74a1,1 0 0 1 0.72,-0.33l18.51,-0.55a1,1 0 0 1 0.85,0.43a1,1 0 0 1 0.1,0.94l-15.79,39a1,1 0 0 1 -0.92,0.6zm-1.61,-38.46l2.34,33.09l13.59,-33.57l-15.93,0.48z"
                  fill="#093f68" id="svg_15"/>
            <polygon fill="#fff" id="svg_16"
                     points="242.93 135.26 228.89 118.27 213.95 160.6 234.57 159.56 242.93 135.26"/>
            <path d="m214,161.6a1,1 0 0 1 -0.8,-0.4a1,1 0 0 1 -0.15,-0.93l14.94,-42.33a1,1 0 0 1 0.77,-0.65a1,1 0 0 1 0.95,0.34l14,17a1,1 0 0 1 0.17,1l-8.36,24.3a1,1 0 0 1 -0.89,0.67l-20.62,1l-0.01,0zm15.29,-41.33l-13.85,39.26l18.45,-0.93l8,-23.13l-12.6,-15.2z"
                  fill="#093f68" id="svg_17"/>
            <polygon fill="#dfeaef" id="svg_18"
                     points="208.37 168.05 220.95 130.96 242.93 135.26 230.25 171.81 208.37 168.05"/>
            <path d="m230.25,172.81l-0.17,0l-21.88,-3.81a1,1 0 0 1 -0.69,-0.47a1,1 0 0 1 -0.09,-0.84l12.58,-37.06a1,1 0 0 1 1.14,-0.66l22,4.31a1,1 0 0 1 0.67,0.49a1,1 0 0 1 0.08,0.82l-12.69,36.54a1,1 0 0 1 -0.95,0.68zm-20.56,-5.54l19.9,3.41l12,-34.66l-20,-3.91l-11.9,35.16z"
                  fill="#093f68" id="svg_19"/>
            <circle cx="158.92" cy="73.78" fill="#9e951e" id="svg_20" r="15.03" transform="matrix(1 0 0 1 0 0)"/>
            <path d="m158.9,89.81a16,16 0 1 1 16,-16.84l0,0a16,16 0 0 1 -15.19,16.82l-0.81,0.02zm0,-30.06l-0.73,0a14,14 0 1 0 14.72,13.3l0,0a14,14 0 0 0 -14,-13.32l0.01,0.02z"
                  fill="#093f68" id="svg_21"/>
            <rect fill="#f56132" height="59.56" id="svg_22" transform="translate(327.09 256.89) rotate(179.8)"
                  width="28.59" x="149.02" y="98.95"/>
            <path d="m149.13,159.56a1,1 0 0 1 -1,-1l-0.21,-59.56a1,1 0 0 1 1,-1l28.59,-0.1l0,0a1,1 0 0 1 0.7,0.29a1,1 0 0 1 0.3,0.7l0.21,59.56a1,1 0 0 1 -0.29,0.71a1,1 0 0 1 -0.71,0.3l-28.59,0.1zm0.79,-59.56l0.2,57.55l26.59,-0.09l-0.2,-57.56l-26.59,0.1z"
                  fill="#093f68" id="svg_23"/>
            <rect fill="#f56132" height="59.56" id="svg_24" rx="8.13" transform="translate(-0.45 0.51) rotate(-0.2)"
                  width="18.11" x="136.64" y="99.01"/>
            <path d="m144.85,159.57a9.14,9.14 0 0 1 -9.13,-9.09l-0.15,-43.31a9.14,9.14 0 0 1 9.09,-9.17l1.89,0a9.13,9.13 0 0 1 9.13,9.09l0.15,43.31a9.13,9.13 0 0 1 -9.1,9.16l-1.88,0l0,0.01zm1.88,-1l0,0zm-0.18,-58.57l-1.88,0a7.14,7.14 0 0 0 -7.1,7.16l0.15,43.3a7.13,7.13 0 0 0 7.13,7.1l1.87,0a7.14,7.14 0 0 0 7.11,-7.16l-0.15,-43.3a7.14,7.14 0 0 0 -7.13,-7.1z"
                  fill="#093f68" id="svg_25"/>
            <rect fill="#ffbc0e" height="11.75" id="svg_26" transform="translate(316.01 328.28) rotate(179.8)"
                  width="28.59" x="143.42" y="158.54"/>
            <path d="m143.45,171.34a1,1 0 0 1 -1,-1l0,-11.75a1,1 0 0 1 1,-1l28.59,-0.1l0,0a1,1 0 0 1 1,1l0,11.75a1,1 0 0 1 -1,1l-28.59,0.1zm1,-11.75l0,9.75l26.59,-0.1l0,-9.75l-26.59,0.1z"
                  fill="#093f68" id="svg_27"/>
            <rect fill="#ffbc0e" height="11.75" id="svg_28" rx="5.73" transform="translate(-0.57 0.5) rotate(-0.2)"
                  width="11.46" x="137.7" y="158.59"/>
            <path d="m143.43,171.34a6.73,6.73 0 0 1 -6.73,-6.7l0,-0.3a6.73,6.73 0 0 1 6.7,-6.75l0,0a6.71,6.71 0 0 1 6.72,6.7l0,0.3a6.72,6.72 0 0 1 -6.7,6.75l0,0l0.01,0zm0,-1l0,0zm0,-10.75l0,0a4.73,4.73 0 0 0 -4.71,4.74l0,0.3a4.74,4.74 0 0 0 4.73,4.71l0,0a4.73,4.73 0 0 0 4.71,-4.74l0,-0.3a4.71,4.71 0 0 0 -4.72,-4.71l-0.01,0z"
                  fill="#093f68" id="svg_29"/>
            <path d="m184.48,67.39a19.72,19.72 0 0 1 6.52,0.61c6.33,1.76 11.33,7 13.62,13.2s2.1,13 0.42,19.38a31,31 0 0 1 -6.36,12.59c-3.1,3.52 -7.89,6.95 -12.73,6.23c-5.28,-0.79 -9.73,-4 -13.92,-7.07c-4.85,-3.54 -9.11,-8.15 -10.9,-14a22.73,22.73 0 0 1 2.14,-17.63a27.09,27.09 0 0 1 13.66,-11.58a25.7,25.7 0 0 1 7.55,-1.73z"
                  fill="#9e951e" id="svg_30" transform="matrix(1 0 0 1 0 0)"/>
            <path d="m187.22,120.5a9.46,9.46 0 0 1 -1.41,-0.1c-5.59,-0.83 -10.25,-4.24 -14.36,-7.25c-5.84,-4.27 -9.63,-9.15 -11.27,-14.51a23.91,23.91 0 0 1 2.23,-18.42a28,28 0 0 1 14.16,-12a26.66,26.66 0 0 1 7.84,-1.81l0,0a20.51,20.51 0 0 1 6.87,0.66c6.28,1.74 11.76,7 14.29,13.82c2.78,7.44 1.78,15 0.45,20a31.88,31.88 0 0 1 -6.58,13c-3.74,4.2 -8.21,6.61 -12.22,6.61zm-2.68,-52.11a24.63,24.63 0 0 0 -7.24,1.67a26,26 0 0 0 -13.15,11.15a21.88,21.88 0 0 0 -2.06,16.84c1.51,4.94 5.06,9.48 10.54,13.49c3.93,2.87 8.38,6.12 13.48,6.88c5.45,0.81 10.43,-4.31 11.83,-5.9a29.88,29.88 0 0 0 6.14,-12.19c1.26,-4.72 2.21,-11.82 -0.38,-18.77c-2.31,-6.19 -7.28,-11 -13,-12.58a18.58,18.58 0 0 0 -6.2,-0.59l0.04,0z"
                  fill="#093f68" id="svg_31"/>
            <path d="m171.937142,115.671428l17.35,0a7.84,7.84 0 0 1 7.84,7.84l0,33.1a0,0 0 0 1 0,0l-33,0a0,0 0 0 1 0,0l0,-33.1a7.84,7.84 0 0 1 7.81,-7.84z"
                  fill="#8839a3" id="svg_32" transform="matrix(1 0 0 1 0 0) rotate(5.07 180.627 136.141)"/>
            <path d="m195.56,159.87l-0.09,0l-32.89,-2.93a1,1 0 0 1 -0.91,-1.08l2.93,-33a8.84,8.84 0 0 1 9.58,-8l17.28,1.54a8.85,8.85 0 0 1 8,9.58l-2.93,33a1,1 0 0 1 -1,0.91l0.03,-0.02zm-31.81,-4.87l30.9,2.74l2.84,-32a6.84,6.84 0 0 0 -6.2,-7.41l-17.29,-1.46a6.84,6.84 0 0 0 -7.42,6.2l-2.83,31.93z"
                  fill="#093f68" id="svg_33"/>
            <path d="m197.89,134.12l-0.13,0a1.51,1.51 0 0 1 -1.37,-1.46c-0.17,-1.84 -2.76,-13.64 -9.75,-15.37a1.5,1.5 0 0 1 0.72,-2.91c4,1 7.39,4.43 9.72,9.92a30.22,30.22 0 0 1 2.31,8.46a1.5,1.5 0 0 1 -1.5,1.36z"
                  fill="#093f68" id="svg_34"/>
            <path d="m160.07,150.4a1.5,1.5 0 0 1 -0.15,-3c3.87,-0.38 6.76,-3.94 8.51,-6.87c4,-6.69 5.31,-15.36 4.23,-17.93c-2.79,-6.69 -11.89,-7.34 -12,-7.35a1.5,1.5 0 0 1 0.18,-3c0.45,0 11,0.76 14.57,9.18c1.7,4.08 -0.4,13.91 -4.42,20.63c-3,5 -6.75,7.92 -10.8,8.31l-0.12,0.03z"
                  fill="#093f68" id="svg_35"/>
            <path d="m181.3,119.36l6.35,0a0,0 0 0 1 0,0l0,3.64a2.7,2.7 0 0 1 -2.7,2.7l-1,0a2.7,2.7 0 0 1 -2.7,-2.7l0,-3.65a0,0 0 0 1 0.05,0.01z"
                  fill="#ffc9b0" id="svg_36" transform="translate(2.92 -4.28) rotate(1.34)"/>
            <path d="m184.94,126.72l-0.09,0l-0.95,0a3.7,3.7 0 0 1 -3.61,-3.78l0.08,-3.66a1,1 0 0 1 1,-1l6.34,0.15a0.93,0.93 0 0 1 0.7,0.31a0.94,0.94 0 0 1 0.28,0.71l-0.09,3.65a3.69,3.69 0 0 1 -3.66,3.62zm0,-2a1.71,1.71 0 0 0 1.74,-1.65l0.06,-2.66l-4.35,-0.1l-0.06,2.65a1.7,1.7 0 0 0 1.65,1.74l0.96,0.02z"
                  fill="#093f68" id="svg_37"/>
            <ellipse cx="201.35" cy="103.92" fill="#ffc9b0" id="svg_38" rx="5.31" ry="4.76"
                     transform="translate(92.74 302.79) rotate(-88.66)"/>
            <path d="m201.33,110.24l-0.13,0a6.34,6.34 0 1 1 5.91,-6.18l0,0a6.09,6.09 0 0 1 -5.78,6.18zm0,-10.63a4.36,4.36 0 0 0 -0.12,8.63l0.08,0a4.36,4.36 0 0 0 0.12,-8.63l-0.08,0zm4.74,4.43l0,0z"
                  fill="#093f68" id="svg_39"/>
            <path d="m184.32,120.85c-10.44,-0.24 -19.48,-13.34 -19.24,-23.61l3.71,1.4l2.21,-8.94s15.82,-0.1 19.19,-9.43c8.09,8.19 12.37,3.82 12.37,3.82l-0.43,18.57c-0.2,10.27 -7.38,18.44 -17.81,18.19z"
                  fill="#ffc9b0" id="svg_40"/>
            <path d="m184.76,121.86l-0.47,0c-11,-0.26 -20.46,-14 -20.21,-24.63a1,1 0 0 1 0.44,-0.81a1,1 0 0 1 0.91,-0.11l2.66,1l2,-7.86a1,1 0 0 1 1,-0.75c0.15,0 15.16,-0.21 18.26,-8.77a1,1 0 0 1 0.72,-0.64a1,1 0 0 1 0.93,0.28c7.2,7.28 10.81,4 11,3.81a1,1 0 0 1 1.7,0.73l-0.43,18.58a20.5,20.5 0 0 1 -5.38,13.7a17.74,17.74 0 0 1 -13.13,5.47zm-18.66,-23.17c0.54,11.15 10.3,21 18.24,21.16a15.74,15.74 0 0 0 12,-4.84a18.49,18.49 0 0 0 4.83,-12.37l0.39,-16.8a6.27,6.27 0 0 1 -2.3,0.41l0,0c-2.69,0 -5.6,-1.43 -8.68,-4.27c-3.94,7.5 -15.57,8.55 -18.74,8.69l-2.06,8.21a1,1 0 0 1 -0.51,0.65a1,1 0 0 1 -0.81,0l-2.36,-0.84z"
                  fill="#093f68" id="svg_41"/>
            <ellipse cx="178.48" cy="98.69" fill="#093f68" id="svg_42" rx="1.72" ry="1.72"
                     transform="translate(75.65 274.81) rotate(-88.66)"/>
            <circle cx="194.78" cy="99.59" fill="#093f68" id="svg_43" r="1.72"/>
            <path d="m189.34,105.23a10.47,10.47 0 0 1 -2,-0.19a1,1 0 0 1 -0.78,-1.17a1,1 0 0 1 1.17,-0.79a8.76,8.76 0 0 0 2,0.14a15.7,15.7 0 0 0 -1.29,-3.5a1,1 0 1 1 1.79,-0.88c0.92,1.86 1.9,4.33 1.34,5.5a1.35,1.35 0 0 1 -1,0.76a5.8,5.8 0 0 1 -1.23,0.13z"
                  fill="#093f68" id="svg_44"/>
            <path d="m183.18,97l-0.18,0l-8.18,-0.77a2,2 0 1 1 0.38,-4l8.17,0.77a2,2 0 0 1 -0.18,4l-0.01,0z"
                  fill="#093f68" id="svg_45"/>
            <path d="m190.4,96.31a2,2 0 0 1 -0.21,-4l8.17,-0.88a2,2 0 1 1 0.42,4l-8.16,0.87l-0.22,0.01z" fill="#093f68"
                  id="svg_46"/>
            <path d="m168.79,98.64s-4.47,-3.25 -7,0.74s-0.34,11 7.22,9.11" fill="#ffc9b0" id="svg_47"/>
            <path d="m166.67,109.79a6.6,6.6 0 0 1 -5.61,-2.67a7.56,7.56 0 0 1 -0.12,-8.28a4.91,4.91 0 0 1 3.29,-2.36a7.54,7.54 0 0 1 5.15,1.35a1,1 0 1 1 -1.18,1.62a5.43,5.43 0 0 0 -3.61,-1a3,3 0 0 0 -2,1.47a5.59,5.59 0 0 0 0.07,6c1.19,1.67 3.35,2.22 6.07,1.56a1,1 0 0 1 1.21,0.74a1,1 0 0 1 -0.74,1.2a10.71,10.71 0 0 1 -2.53,0.37z"
                  fill="#093f68" id="svg_48"/>
            <path d="m187.48,113.34c-3.28,0 -9.47,-1.66 -10.36,-8a1,1 0 0 1 2,-0.27c0.87,6.29 8.16,6.27 8.48,6.28l0,0a1,1 0 0 1 1,1a1,1 0 0 1 -1,1l-0.12,-0.01z"
                  fill="#093f68" id="svg_49"/>
            <path d="m211,143.92a136.2,136.2 0 0 1 -22.51,-4c-2.74,-1.94 -6.72,-8.06 -12.45,-17.13a6.38,6.38 0 1 0 -10.79,6.82c5.52,8.74 11.84,19.16 17.89,21.92c4.7,2.13 17.54,2 26.68,1.3q0.65,-4.44 1.18,-8.91z"
                  fill="#8839a3" id="svg_50"/>
            <path d="m198.2,154.3c-6.43,0 -12.48,-0.49 -15.48,-1.85c-6,-2.73 -12.07,-12.37 -17.43,-20.87l-0.9,-1.43a7.39,7.39 0 0 1 12.49,-7.89c5.41,8.57 9.46,14.81 12.05,16.75a134.86,134.86 0 0 0 22.14,3.91a1,1 0 0 1 0.93,1.08c-0.39,3.24 -0.78,6.17 -1.2,9a1,1 0 0 1 -0.91,0.85c-3.63,0.27 -7.73,0.45 -11.69,0.45zm-27.57,-33.48a5.38,5.38 0 0 0 -4.55,8.26l0.9,1.43c5.21,8.27 11.11,17.64 16.57,20.12c4.11,1.87 15.56,2 25.38,1.27c0.33,-2.22 0.64,-4.55 0.95,-7.07a138.73,138.73 0 0 1 -21.67,-3.94a0.85,0.85 0 0 1 -0.3,-0.15c-2.9,-2 -6.74,-7.94 -12.72,-17.41a5.41,5.41 0 0 0 -3.78,-2.45a5.12,5.12 0 0 0 -0.78,-0.06z"
                  fill="#093f68" id="svg_51"/>
            <path d="m218.7,142s-0.81,-2.18 -1.88,-2s-3.53,4.07 -3.53,4.07l-2.3,-0.13s-1.17,8.43 -1.18,8.92l3.6,-0.33s9.41,1.1 11.14,-0.26s1.06,-8.89 0.1,-10.08s-5.95,-0.19 -5.95,-0.19z"
                  fill="#ffc9b0" id="svg_52"/>
            <path d="m220,153.94a61.05,61.05 0 0 1 -6.56,-0.43c-0.92,0.1 -3.52,0.32 -3.52,0.32a1,1 0 0 1 -0.77,-0.26a1,1 0 0 1 -0.31,-0.76c0,-0.51 0.92,-7 1.19,-9a1,1 0 0 1 1.05,-0.86l0.77,0l0.94,0.06c1.2,-1.84 2.75,-3.85 3.9,-4s2.17,1 2.63,1.88c1.92,-0.32 5.09,-0.62 6.14,0.68s1.4,5.49 1.09,8.18a4.76,4.76 0 0 1 -1.35,3.31c-0.91,0.67 -3,0.88 -5.2,0.88zm-6.56,-2.43l0.12,0c4.35,0.51 9.56,0.62 10.4,0c1.12,-0.88 0.68,-7.66 -0.06,-8.67c-0.42,-0.34 -2.8,-0.26 -5,0.18a1,1 0 0 1 -1.13,-0.63l0,0a3.73,3.73 0 0 0 -0.83,-1.34a16.74,16.74 0 0 0 -2.81,3.57a1,1 0 0 1 -0.88,0.47l-1.39,-0.08c-0.32,2.29 -0.71,5.18 -0.92,6.76l2.37,-0.22l0.13,-0.04z"
                  fill="#093f68" id="svg_53"/>
            <path d="m178.54,139.67a1,1 0 0 1 -0.81,-0.41l-3.56,-4.89a1,1 0 0 1 -0.18,-0.75a1,1 0 0 1 0.42,-0.66l5.58,-3.9a1,1 0 0 1 1.15,1.64l-4.75,3.3l2.38,3.27l4.6,-3.27a1,1 0 0 1 1.4,0.24a1,1 0 0 1 -0.24,1.39l-5.41,3.84a1,1 0 0 1 -0.58,0.2z"
                  fill="#093f68" id="svg_54"/>
            <polygon fill="#093f68" id="svg_55"
                     points="162.67 155.95 160.23 189.05 179.3 189.05 180.82 169.51 186.33 188.59 202.13 187.79 195.85 155.62 162.67 155.95"/>
            <path d="m179.3,190.05l-19.07,0a1,1 0 0 1 -0.73,-0.32a1,1 0 0 1 -0.26,-0.75l2.43,-33.1a1,1 0 0 1 1,-0.93l33.18,-0.33l0,0a1,1 0 0 1 1,0.81l6.28,32.17a1,1 0 0 1 -0.93,1.19l-15.8,0.8a1,1 0 0 1 -1,-0.72l-4,-13.79l-1.09,14a1,1 0 0 1 -1.01,0.97zm-18,-2l17.06,0l1.45,-18.62a1,1 0 0 1 0.89,-0.92a1,1 0 0 1 1.07,0.72l5.3,18.32l13.85,-0.7l-5.92,-30.22l-31.43,0.31l-2.27,31.11z"
                  fill="#093f68" id="svg_56"/>
            <path d="m169,223.34l-14.25,-6.41l-6.21,13.33s6.84,5.67 10.87,7.69c3,1.51 9.37,2.5 12.6,1.72l-7.1,-6.77l4.09,-9.56z"
                  fill="#1b6c7c" id="svg_57" transform="matrix(1 0 0 1 0 0)"/>
            <path d="m169.15,240.94a26.34,26.34 0 0 1 -10.23,-2.09c-4.08,-2 -10.78,-7.59 -11.06,-7.82a1,1 0 0 1 -0.27,-1.2l6.22,-13.32a1,1 0 0 1 1.31,-0.49l14.25,6.4a1,1 0 0 1 0.51,1.31l-3.82,8.92l6.6,6.29a1,1 0 0 1 -0.46,1.7a13.35,13.35 0 0 1 -3.05,0.3zm-19.42,-11c1.74,1.41 6.89,5.48 10.08,7.09a24.49,24.49 0 0 0 9.93,1.87l-5.56,-5.31a1,1 0 0 1 -0.23,-1.12l3.71,-8.66l-12.46,-5.59l-5.47,11.72z"
                  fill="#093f68" id="svg_58"/>
            <path d="m193.46,224.35l15.54,-4.13l2.62,10.92s12.79,-1.49 12.23,-0.95s-20.13,10.49 -26.19,11.06l-4.2,-16.9z"
                  fill="#1b6c7c" id="svg_59"/>
            <path d="m197.68,242.25a1,1 0 0 1 -1,-0.76l-4.22,-16.89a1,1 0 0 1 0.71,-1.21l15.56,-4.13a1,1 0 0 1 0.77,0.11a1,1 0 0 1 0.46,0.62l2.42,10c11.88,-1.37 12,-1.07 12.38,-0.32a1.08,1.08 0 0 1 -0.23,1.19c-1,1 -20.84,10.78 -26.78,11.33l-0.07,0.06zm-3,-17.18l3.76,15.06c4.88,-0.92 15.63,-6 21.26,-8.83c-2.26,0.2 -5.19,0.51 -7.93,0.83a1,1 0 0 1 -1.09,-0.76l-2.39,-9.92l-13.61,3.62z"
                  fill="#093f68" id="svg_60"/>
            <path class="marta_sun"
                  d="m241.8,88.86a8.59,8.59 0 1 1 8.59,-8.59a8.61,8.61 0 0 1 -8.59,8.59zm0,-15.18a6.59,6.59 0 1 0 6.59,6.59a6.6,6.6 0 0 0 -6.59,-6.59z"
                  fill="#dfeaef" id="svg_61" transform="matrix(1 0 0 1 0 0)"/>
            <path class="marta_sun" d="m241.8,98.09a1,1 0 0 1 -1,-1l0,-3.75a1,1 0 1 1 2,0l0,3.75a1,1 0 0 1 -1,1z"
                  fill="#dfeaef" id="svg_62" transform="matrix(1 0 0 1 0 0)"/>
            <path class="marta_sun" d="m241.8,68.2a1,1 0 0 1 -1,-1l0,-3.75a1,1 0 1 1 2,0l0,3.75a1,1 0 0 1 -1,1z"
                  fill="#dfeaef" id="svg_63" transform="matrix(1 0 0 1 0 0)"/>
            <path class="marta_sun"
                  d="m229.91,93.16a1,1 0 0 1 -0.71,-0.29a1,1 0 0 1 0,-1.41l2.65,-2.66a1,1 0 1 1 1.42,1.42l-2.66,2.65a1,1 0 0 1 -0.7,0.29z"
                  fill="#dfeaef" id="svg_64" transform="matrix(1 0 0 1 0 0)"/>
            <path class="marta_sun"
                  d="m251,72a1,1 0 0 1 -0.7,-0.3a1,1 0 0 1 0,-1.41l2.7,-2.62a1,1 0 0 1 1.41,0a1,1 0 0 1 0,1.41l-2.65,2.65a1,1 0 0 1 -0.76,0.27z"
                  fill="#dfeaef" id="svg_65" transform="matrix(1 0 0 1 0 0)"/>
            <path class="marta_sun" d="m228.73,81.27l-3.73,0a1,1 0 0 1 0,-2l3.75,0a1,1 0 0 1 0,2l-0.02,0z"
                  fill="#dfeaef" id="svg_66" transform="matrix(1 0 0 1 0 0)"/>
            <path class="marta_sun" d="m258.62,81.27l-3.75,0a1,1 0 0 1 0,-2l3.75,0a1,1 0 0 1 0,2z" fill="#dfeaef"
                  id="svg_67" transform="matrix(1 0 0 1 0 0)"/>
            <path class="marta_sun"
                  d="m232.56,72a1,1 0 0 1 -0.71,-0.3l-2.65,-2.65a1,1 0 0 1 1.41,-1.41l2.66,2.65a1,1 0 0 1 -0.71,1.71z"
                  fill="#dfeaef" id="svg_68" transform="matrix(1 0 0 1 0 0)"/>
            <path class="marta_sun"
                  d="m253.7,93.16a1,1 0 0 1 -0.71,-0.29l-2.65,-2.65a1,1 0 0 1 0,-1.42a1,1 0 0 1 1.41,0l2.65,2.66a1,1 0 0 1 0,1.41a1,1 0 0 1 -0.7,0.29z"
                  fill="#dfeaef" id="svg_69" transform="matrix(1 0 0 1 0 0)"/>
        </g>
    </g>
</svg>